<svg xmlns="http://www.w3.org/2000/svg" xmlns:xlink="http://www.w3.org/1999/xlink" viewBox="0 0 181.36 41.63"><defs><style>.cls-1{fill:none;}.cls-2{clip-path:url(#clip-path);}.cls-3{fill:#1d1d1b;}</style><clipPath id="clip-path" transform="translate(0 0)"><rect class="cls-1" width="181.36" height="41.63"/></clipPath></defs><g id="Ebene_2" data-name="Ebene 2"><g id="Ebene_1-2" data-name="Ebene 1"><g class="cls-2"><path class="cls-3" d="M38.26,0H0V9.24H32.93ZM6,6.7H3.11V6l1.67-1.6a1.15,1.15,0,0,0,.44-.84A.65.65,0,0,0,4.53,3a.76.76,0,0,0-.74.73l-.71-.11A1.4,1.4,0,0,1,4.54,2.35,1.3,1.3,0,0,1,6,3.59a1.72,1.72,0,0,1-.7,1.28L4,6H6ZM7.8,4a2.67,2.67,0,0,1,.51,0A1.33,1.33,0,0,1,9.8,5.31,1.47,1.47,0,0,1,8.22,6.8a1.49,1.49,0,0,1-1.47-.92l.67-.24a.85.85,0,0,0,.82.55.77.77,0,0,0,.81-.8c0-.65-.5-.85-1-.85a2.54,2.54,0,0,0-1,.24l.07-2.32H9.61v.65H7.84Zm6.71,1.31c0,.61-.22,1.47-1.3,1.47a1.22,1.22,0,0,1-1.28-.93l.71-.2a.56.56,0,0,0,.55.46c.45,0,.55-.34.55-.83V2.46h.77Zm5,1.37h-.89l-.4-1H16.38l-.4,1h-.86L17,2.46h.67Zm4.21,0H23V4.82H21V6.7h-.77V2.46H21V4.17h2V2.46h.77Zm3.17-1.88L28.09,6.7h-.94l-1-1.8h-.57V6.7h-.77V2.46h1.51c.82,0,1.6.32,1.6,1.22a1.13,1.13,0,0,1-1,1.14M31.75,6.7h-3V2.46h2.88v.66H29.53V4.2h2v.63h-2V6h2.22ZM26.22,4.29c.43,0,.93-.11.93-.62s-.47-.58-.87-.58h-.7v1.2Zm-9.58.79H18l-.67-1.72Z" transform="translate(0 0)"/><path class="cls-3" d="M21.05,41.56H65l-11.56-20c-5,7.34-18.82,15.76-32.34,20" transform="translate(0 0)"/><path class="cls-3" d="M52.75,20.44,41,0,17,41.55c14.73-3.77,30.75-13.19,35.79-21.11" transform="translate(0 0)"/></g><rect class="cls-3" x="79.84" y="16.17" width="1.15" height="13.74"/><polygon class="cls-3" points="88.36 28.94 93.98 21.56 88.58 21.56 88.58 20.57 95.32 20.57 95.32 21.56 89.69 28.92 95.32 28.92 95.32 29.91 88.36 29.91 88.36 28.94"/><path class="cls-3" d="M132.63,18.08h1.15V16.54h-1.15Zm0,11.83h1.15V20.57h-1.15Z" transform="translate(0 0)"/><path class="cls-3" d="M172.46,41.54h.67V37.61h-.67Zm0-4.66h.67v-.77h-.67Z" transform="translate(0 0)"/><g class="cls-2"><path class="cls-3" d="M70.74,28.41h0a3.27,3.27,0,0,1-3,1.72c-2.65,0-3.07-1.79-3.07-2.64,0-3.13,3.33-3.27,5.75-3.27h.22v-.48c0-1.59-.57-2.4-2.13-2.4a5,5,0,0,0-2.75.77V21a7.38,7.38,0,0,1,2.75-.64c2.31,0,3.28,1,3.28,3.48V28a13.51,13.51,0,0,0,.09,2H70.74Zm-.11-3.2H70.3c-2,0-4.38.2-4.38,2.25,0,1.23.88,1.68,1.94,1.68,2.71,0,2.77-2.36,2.77-3.37Z" transform="translate(0 0)"/><path class="cls-3" d="M176.72,40.1l.66.09a1.73,1.73,0,0,1-.55,1.06,1.64,1.64,0,0,1-1.09.38,1.67,1.67,0,0,1-1.3-.53,2.11,2.11,0,0,1-.49-1.51,2.76,2.76,0,0,1,.21-1.12,1.46,1.46,0,0,1,.64-.72,2,2,0,0,1,.94-.23,1.61,1.61,0,0,1,1,.32,1.52,1.52,0,0,1,.53.92l-.65.1a1.24,1.24,0,0,0-.33-.6.88.88,0,0,0-.57-.2,1,1,0,0,0-.82.37,2.24,2.24,0,0,0,0,2.29,1,1,0,0,0,.79.36,1,1,0,0,0,.66-.24,1.25,1.25,0,0,0,.33-.74" transform="translate(0 0)"/><path class="cls-3" d="M178,41.54V36.11h.66v2a1.63,1.63,0,0,1,1.94-.37,1,1,0,0,1,.47.47,2.32,2.32,0,0,1,.13.89v2.49h-.66V39.05a1,1,0,0,0-.22-.73.82.82,0,0,0-.61-.23,1.09,1.09,0,0,0-.56.15.88.88,0,0,0-.37.42,1.82,1.82,0,0,0-.12.73v2.15Z" transform="translate(0 0)"/><path class="cls-3" d="M161.53,41.54V41L164,38.12l-.76,0h-1.6v-.54h3.22v.44l-2.13,2.5-.42.45.85,0H165v.57Z" transform="translate(0 0)"/><path class="cls-3" d="M168.27,41.54V41a1.43,1.43,0,0,1-1.25.67,1.57,1.57,0,0,1-.65-.13,1.07,1.07,0,0,1-.45-.34,1.37,1.37,0,0,1-.21-.49,4.26,4.26,0,0,1,0-.63V37.61h.67v2.18a3.59,3.59,0,0,0,0,.7.68.68,0,0,0,.27.42.82.82,0,0,0,.5.15,1.07,1.07,0,0,0,.57-.16.86.86,0,0,0,.37-.41,2.23,2.23,0,0,0,.11-.78v-2.1h.67v3.93Zm-2-5.47h.7v.76h-.7Zm1.38,0h.7v.76h-.7Z" transform="translate(0 0)"/><path class="cls-3" d="M169.91,41.54V37.61h.6v.59a1.7,1.7,0,0,1,.43-.55.73.73,0,0,1,.43-.13,1.31,1.31,0,0,1,.68.21l-.23.62a.92.92,0,0,0-.49-.14.61.61,0,0,0-.39.13.72.72,0,0,0-.25.36,2.77,2.77,0,0,0-.11.78v2.06Z" transform="translate(0 0)"/><path class="cls-3" d="M153.29,29.91V23.7c0-1.32-.5-2.36-2-2.36-1.27,0-2.51,1.08-2.51,3.41v5.16h-1.16V23.7c0-1.32-.49-2.36-2-2.36-1.27,0-2.51,1.08-2.51,3.41v5.16H142V22.77c0-.71,0-1.45-.07-2.2h1.12v1.58l0,0A2.94,2.94,0,0,1,146,20.35a2.35,2.35,0,0,1,2.47,2h0a3.15,3.15,0,0,1,3-2,2.85,2.85,0,0,1,2.95,3.13v6.43Z" transform="translate(0 0)"/><path class="cls-3" d="M168.83,29.62a7.62,7.62,0,0,1-2.71.51c-3.09,0-4.24-2.08-4.24-4.89s1.57-4.89,3.93-4.89c2.64,0,3.72,2.13,3.72,4.64v.58h-6.39c0,2,1.06,3.57,3.08,3.57a6.05,6.05,0,0,0,2.61-.69Zm-.56-5c0-1.63-.66-3.24-2.38-3.24s-2.75,1.7-2.75,3.24Z" transform="translate(0 0)"/><path class="cls-3" d="M177,22.66a17.59,17.59,0,0,0-.07-2.09h1.15v1.8h0a2.77,2.77,0,0,1,2.4-2,3.68,3.68,0,0,1,.8.11v1.21a3.16,3.16,0,0,0-.84-.11c-1.83,0-2.32,2.05-2.32,3.74v4.61H177Z" transform="translate(0 0)"/><path class="cls-3" d="M102.66,16.18h1.16v6h0a3.17,3.17,0,0,1,2.91-1.8c2.51,0,3.19,1.67,3.19,4v5.58H108.8V24.34c0-1.61-.31-3-2.22-3s-2.76,1.94-2.76,3.57v5h-1.16Z" transform="translate(0 0)"/><path class="cls-3" d="M124.42,29.62a7.66,7.66,0,0,1-2.71.51c-3.1,0-4.25-2.08-4.25-4.89s1.57-4.89,3.94-4.89c2.64,0,3.72,2.13,3.72,4.64v.58h-6.4c0,2,1.07,3.57,3.08,3.57a6.14,6.14,0,0,0,2.62-.69Zm-.57-5c0-1.63-.66-3.24-2.38-3.24s-2.75,1.7-2.75,3.24Z" transform="translate(0 0)"/></g></g></g></svg>