<svg width="841.89" height="342.86" xmlns="http://www.w3.org/2000/svg">

 <g>
  <title>background</title>
  <rect fill="none" id="canvas_background" height="402" width="582" y="-1" x="-1"/>
 </g>
 <g>
  <title>Layer 1</title>
  <g id="svg_1"/>
  <g id="svg_2">
   <g id="svg_3">
    <g id="svg_4">
     <g id="svg_5">
      <path fill="#ffffff" id="svg_6" d="m86.93,258.26l18.2,-24.01l19.4,0l-19.84,24.12l22.03,28.94l-19.95,0l-19.84,-28.83l0,28.83l-16.66,0l0,-73.12l11.95,0c2.85,0 4.71,1.75 4.71,4.28l0,39.79z"/>
      <path fill="#ffffff" id="svg_7" d="m144.15,234.25c2.63,0 4.38,1.87 4.38,4.38l0,25.87c0,7.34 3.73,10.08 8.33,10.08c3.95,0 6.8,-1.53 9.87,-4.38l0,-35.96l16.66,0l0,42.43c0,3.51 0.44,8 1.21,10.63l-15.24,0c-0.66,-1.86 -1.53,-4.93 -1.86,-6.58c-5.26,5.15 -10.96,7.57 -17.43,7.57c-11.29,0 -18.2,-6.58 -18.2,-20.28l0,-33.77l12.28,0l0,0.01z"/>
      <path fill="#ffffff" id="svg_8" d="m197.76,214.19l11.84,0c2.63,0 4.6,1.97 4.6,4.5l0,68.62l-16.44,0l0,-73.12z"/>
      <path fill="#ffffff" id="svg_9" d="m240.51,220.66c2.52,0 4.27,1.64 4.27,3.95l0,11.62l17.43,0l0,12.17l-17.43,0l0,21.38c0,3.62 1.97,6.14 6.69,6.14c2.41,0 5.04,-0.66 8.11,-2.09l4.28,11.19c-5.59,2.74 -10.96,4.05 -16.99,4.05c-11.07,0 -18.31,-5.7 -18.31,-18.31l0,-50.1l11.95,0z"/>
      <path fill="#ffffff" id="svg_10" d="m285.68,234.25c2.63,0 4.38,1.87 4.38,4.38l0,25.87c0,7.34 3.73,10.08 8.33,10.08c3.95,0 6.8,-1.53 9.87,-4.38l0,-35.96l16.66,0l0,42.43c0,3.51 0.44,8 1.21,10.63l-15.24,0c-0.66,-1.86 -1.53,-4.93 -1.86,-6.58c-5.26,5.15 -10.96,7.57 -17.43,7.57c-11.29,0 -18.2,-6.58 -18.2,-20.28l0,-33.77l12.28,0l0,0.01z"/>
      <path fill="#ffffff" id="svg_11" d="m355.83,287.31l-16.66,0l0,-53.06l13.37,0l2.63,6.47c2.85,-4.72 8.44,-7.67 14.14,-7.67c1.75,0 3.18,0.22 4.71,0.76c2.41,0.88 3.29,2.63 2.74,4.94l-2.3,10.96c-2.96,-0.99 -5.26,-1.53 -8.33,-1.53c-3.84,0 -7.45,1.42 -10.3,4.17l0,34.96z"/>
      <path fill="#ffffff" id="svg_12" d="m397.49,234.25l2.96,5.7c2.3,-3.95 7.89,-7.12 14.14,-7.12c10.63,0 23.13,7.89 23.13,27.08c0,20.28 -12.17,28.94 -24.45,28.94c-4.6,0 -8.22,-1.2 -11.84,-4.05l0,23.57l-16.55,0l0,-74.11l12.61,0l0,-0.01zm3.95,14.91l0,25c1.97,1.32 4.6,2.09 7.56,2.09c7.12,0 11.51,-5.27 11.51,-16.01c0,-9.65 -5.04,-14.69 -10.74,-14.69c-2.96,-0.01 -5.26,0.65 -8.33,3.61z"/>
      <path fill="#ffffff" id="svg_13" d="m465.9,287.31l-16.66,0l0,-53.06l13.38,0l2.63,6.47c2.85,-4.72 8.44,-7.67 14.14,-7.67c1.75,0 3.18,0.22 4.71,0.76c2.41,0.88 3.29,2.63 2.74,4.94l-2.3,10.96c-2.96,-0.99 -5.26,-1.53 -8.33,-1.53c-3.84,0 -7.46,1.42 -10.31,4.17l0,34.96z"/>
      <path fill="#ffffff" id="svg_14" d="m546.45,261c0,17.1 -11.4,27.84 -27.63,27.84c-16.77,0 -27.63,-10.3 -27.63,-28.17c0,-17.21 11.18,-27.84 27.73,-27.84c16.57,0 27.53,10.52 27.53,28.17zm-27.74,15.24c6.58,0 10.2,-5.37 10.2,-15.35c0,-10.2 -3.73,-15.57 -10.2,-15.57c-6.36,0 -9.98,5.26 -9.98,15.68c0.01,9.98 3.52,15.24 9.98,15.24z"/>
      <path fill="#ffffff" id="svg_15" d="m555.55,287.31l0,-12.5l24.88,-27.63l-23.46,0l0,-12.93l37.49,0c2.96,0 4.82,1.97 4.82,4.5l0,7.89l-24.99,27.62l25.65,0l0,13.05l-44.39,0z"/>
      <path fill="#ffffff" id="svg_16" d="m626.15,264.29c0.11,7.56 4.49,11.4 11.29,11.4c5.59,0 10.64,-1.87 15.35,-4.93l6.91,10.63c-7.67,5.26 -15.67,7.45 -24.01,7.45c-15.78,0 -26.2,-10.19 -26.2,-28.28c0,-19.74 13.59,-27.73 25.98,-27.73c15.02,0 24.78,9.87 24.78,25.87c0,1.32 -0.11,3.73 -0.55,5.59l-33.55,0zm16.88,-8.11c-0.22,-8.34 -3.84,-11.07 -8.11,-11.07c-4.17,0 -8.55,2.74 -8.77,11.07l16.88,0z"/>
      <path fill="#ffffff" id="svg_17" d="m685.78,234.25l2.96,7.23c3.07,-4.93 9.32,-8.44 16.44,-8.44c10.3,0 18.75,5.7 18.75,20.61l0,33.65l-16.66,0l0,-29.7c0,-7.89 -3.51,-10.52 -8.33,-10.52c-3.95,0 -7.12,1.64 -9.87,4.38l0,35.85l-16.67,0l0,-53.06l13.38,0z"/>
      <path fill="#ffffff" id="svg_18" d="m749.03,220.66c2.52,0 4.28,1.64 4.28,3.95l0,11.62l17.43,0l0,12.17l-17.43,0l0,21.38c0,3.62 1.97,6.14 6.69,6.14c2.41,0 5.04,-0.66 8.11,-2.09l4.28,11.19c-5.59,2.74 -10.96,4.05 -16.99,4.05c-11.07,0 -18.31,-5.7 -18.31,-18.31l0,-50.1l11.94,0z"/>
     </g>
    </g>
   </g>
   <g id="svg_19">
    <path fill="#ffffff" id="svg_20" d="m179.03,171.77l0,-72.17l-30.95,72.17l-17.18,0l-30.44,-72.17l0,72.17l-31.99,0l0,-125l42.82,0l29.41,70.59l30.78,-70.59l39.54,0l0,125l-31.99,0z"/>
    <path fill="#ffffff" id="svg_21" d="m235.62,171.77l0,-125l27.35,0c2.41,0 4.79,2.41 4.79,5l0,120.01l-32.14,0l0,-0.01z"/>
    <path fill="#ffffff" id="svg_22" d="m356.5,99.79l40.63,0c3.21,0 5.04,2.62 5.04,5.7l0,64.58c-11.44,2.55 -29.3,4.11 -42.58,4.11c-46.62,0 -71.2,-22.2 -71.2,-65.08c0,-38.25 24.58,-64.74 65.55,-64.74c18.04,0 33.85,4.81 44.04,11.69l-12.6,21.5c-8.8,-3.94 -20.67,-6.7 -29.05,-6.7c-23.55,0 -34.56,15.63 -34.56,38.25c0,24.17 12.74,39.1 36.27,39.1c4.32,0 9.66,-0.17 13.94,-0.83l0,-22.04l-15.48,0l0,-25.54z"/>
    <path fill="#ffffff" id="svg_23" d="m497.16,171.77l-14.83,-34.41c-3.03,-7.01 -5.15,-10.48 -11.57,-10.48l-13,0l0,44.89l-31.42,0l0,-120.01c0,-2.59 2.85,-5 4.89,-5l44.36,0c24.1,0 44.76,5 44.76,36.13c0,13.93 -7.72,28.2 -22.18,31.08c7.2,2.45 14.45,11.69 18.4,21.71l14.29,36.08l-33.7,0l0,0.01zm-23.67,-100.92l-15.73,0l0,31.35l15.73,0c9.39,0 16.78,-5.01 16.78,-16.89c-0.01,-12.06 -7.4,-14.46 -16.78,-14.46z"/>
    <path fill="#ffffff" id="svg_24" d="m600.31,174.18c-40.93,0 -62.58,-28.9 -62.58,-65.08c0,-35.84 21.65,-64.74 62.58,-64.74c38.34,0 60.02,28.9 60.02,64.74c0,36.18 -21.68,65.08 -60.02,65.08zm0,-103.33c-16.86,0 -28.86,12.05 -28.86,38.25c0,26.59 12,38.6 28.86,38.6c14.46,0 26.3,-12 26.3,-38.6c0,-26.2 -11.84,-38.25 -26.3,-38.25z"/>
    <path fill="#ffffff" id="svg_25" d="m721.88,174.18c-21.13,0 -40.76,-7.57 -49.52,-13.59l14.25,-25.27c7.95,4.81 23.41,12.21 37.67,12.21c8.07,0 18.27,-1.56 18.27,-10.52c0,-8.41 -11.39,-10.99 -26.34,-15.27c-18.04,-5.17 -39.04,-12.35 -39.04,-36.62c0,-26.15 23.23,-40.77 53.47,-40.77c19.96,0 35.43,7.07 43.32,14.62l-17.35,19.76c-8.59,-5.13 -17.36,-9.12 -27.19,-9.12c-11.85,0 -18.55,4.49 -18.55,11.04c0,6.49 8.6,9.8 19.41,13.05c19.12,5.9 45.22,11.94 45.22,36.97c0.02,25.8 -20.6,43.51 -53.62,43.51z"/>
   </g>
  </g>
 </g>
</svg>