<?xml version="1.0" encoding="UTF-8"?>
<svg width="1478px" height="511px" viewBox="0 0 1478 511" version="1.1" xmlns="http://www.w3.org/2000/svg" xmlns:xlink="http://www.w3.org/1999/xlink">
    <title>Logo_FGE_MKtag1_Ins_sw_DE</title>
    <defs>
        <polygon id="path-1" points="0 -2.84217094e-14 143.075 -2.84217094e-14 143.075 119.008 0 119.008"></polygon>
        <polygon id="path-3" points="0 -5.68434189e-14 409.550014 -5.68434189e-14 409.550014 332.761 0 332.761"></polygon>
    </defs>
    <g id="Logo_FGE_MKtag1_Ins_sw_DE" stroke="none" stroke-width="1" fill="none" fill-rule="evenodd">
        <polyline id="Fill-1" fill="#FFFFFF" points="532.291 409.364 581.465 478.766 560.249 478.766 519.628 421.205 499.235 440.776 499.235 478.766 481.638 478.766 481.638 361.671 499.235 361.671 499.235 420.383 559.098 361.671 581.465 361.671 532.291 409.364"></polyline>
        <path d="M664.674,393.905 L664.674,478.766 L648.886,478.766 L648.886,466.103 C643.459,474.49 634.249,480.74 622.244,480.74 C603.989,480.74 592.477,470.214 592.477,450.808 L592.477,393.905 L608.923,393.905 L608.923,448.505 C608.923,460.675 615.336,466.267 626.849,466.267 C637.045,466.267 648.228,458.867 648.228,441.763 L648.228,393.905 L664.674,393.905" id="Fill-2" fill="#FFFFFF"></path>
        <polygon id="Fill-3" fill="#FFFFFF" points="683.251 478.766 699.698 478.766 699.698 361.671 683.251 361.671"></polygon>
        <path d="M741.303,407.391 L741.303,458.373 C741.303,463.307 743.769,465.609 751.006,465.609 L758.407,465.609 L758.407,478.766 C754.789,479.095 751.335,479.259 748.374,479.259 C733.08,479.259 724.857,473.997 724.857,459.853 L724.857,407.391 L711.206,407.391 L711.206,393.905 L724.857,393.905 L724.857,369.565 L741.303,369.565 L741.303,393.905 L758.407,393.905 L758.407,407.391 L741.303,407.391" id="Fill-4" fill="#FFFFFF"></path>
        <path d="M843.758,393.905 L843.758,478.766 L827.97,478.766 L827.97,466.103 C822.542,474.49 813.332,480.74 801.328,480.74 C783.072,480.74 771.56,470.214 771.56,450.808 L771.56,393.905 L788.006,393.905 L788.006,448.505 C788.006,460.675 794.42,466.267 805.932,466.267 C816.128,466.267 827.311,458.867 827.311,441.763 L827.311,393.905 L843.758,393.905" id="Fill-5" fill="#FFFFFF"></path>
        <g id="Group-9" transform="translate(862.335000, 391.932000)">
            <mask id="mask-2" fill="white">
                <use xlink:href="#path-1"></use>
            </mask>
            <g id="Clip-7"></g>
            <path d="M47.035,0.822 L47.035,16.445 L42.924,16.445 C26.642,16.445 16.445,24.504 16.445,40.785 L16.445,86.834 L0,86.834 L0,1.973 L15.788,1.973 L15.788,17.104 C20.392,7.894 28.78,0.657 42.266,0.657 C43.746,0.657 45.225,0.657 47.035,0.822" id="Fill-6" fill="#FFFFFF" mask="url(#mask-2)"></path>
            <path d="M125.972,43.746 C125.972,24.339 116.268,14.143 101.139,14.143 C86.009,14.143 76.306,24.997 76.306,44.403 C76.306,63.81 86.009,74.664 101.139,74.664 C116.268,74.664 125.972,63.151 125.972,43.746 Z M143.075,44.403 C143.075,71.539 127.781,88.808 104.264,88.808 C92.094,88.808 82.719,83.709 76.634,74.993 L76.634,119.068 L60.188,119.068 L60.188,1.973 L75.976,1.973 L75.976,14.801 C82.061,5.427 91.6,-2.84217094e-14 104.264,-2.84217094e-14 C127.781,-2.84217094e-14 143.075,17.268 143.075,44.403 L143.075,44.403 Z" id="Fill-8" fill="#FFFFFF" mask="url(#mask-2)"></path>
        </g>
        <path d="M1066.91,392.754 L1066.91,408.377 L1062.8,408.377 C1046.52,408.377 1036.32,416.436 1036.32,432.717 L1036.32,478.766 L1019.88,478.766 L1019.88,393.905 L1035.67,393.905 L1035.67,409.036 C1040.27,399.826 1048.66,392.589 1062.14,392.589 C1063.62,392.589 1065.1,392.589 1066.91,392.754" id="Fill-10" fill="#FFFFFF"></path>
        <path d="M1143.05,436.335 C1143.05,416.929 1133.19,406.075 1118.22,406.075 C1103.09,406.075 1093.22,416.929 1093.22,436.335 C1093.22,455.742 1103.09,466.596 1118.22,466.596 C1133.19,466.596 1143.05,455.742 1143.05,436.335 Z M1076.12,436.335 C1076.12,409.2 1093.39,391.932 1118.22,391.932 C1142.89,391.932 1160.16,409.2 1160.16,436.335 C1160.16,463.471 1142.89,480.74 1118.22,480.74 C1093.39,480.74 1076.12,463.471 1076.12,436.335 L1076.12,436.335 Z" id="Fill-11" fill="#FFFFFF"></path>
        <path d="M1240.9,465.281 L1240.9,478.766 L1170.84,478.766 L1170.84,467.254 L1207.35,420.712 C1210.81,416.271 1214.42,411.666 1218.21,407.226 C1212.29,407.391 1206.37,407.391 1200.45,407.391 L1172.16,407.391 L1172.16,393.905 L1238.93,393.905 L1238.93,405.417 L1202.42,451.959 C1198.97,456.4 1195.35,461.004 1191.57,465.445 C1197.49,465.281 1203.41,465.281 1209.33,465.281 L1240.9,465.281" id="Fill-12" fill="#FFFFFF"></path>
        <path d="M1268.36,428.77 L1315.23,428.77 C1313.75,415.614 1305.69,405.746 1291.88,405.746 C1279.54,405.746 1270.5,413.147 1268.36,428.77 Z M1332.17,441.763 L1268.2,441.763 C1269.68,459.031 1278.89,466.925 1292.54,466.925 C1303.56,466.925 1310.63,461.333 1313.59,452.782 L1330.2,452.782 C1325.92,469.227 1312.6,480.74 1292.21,480.74 C1268.2,480.74 1251.59,463.636 1251.59,436.335 C1251.59,409.693 1267.7,391.932 1291.88,391.932 C1317.54,391.932 1332.17,411.502 1332.17,436.994 L1332.17,441.763 L1332.17,441.763 Z" id="Fill-13" fill="#FFFFFF"></path>
        <path d="M1419,421.863 L1419,478.766 L1402.55,478.766 L1402.55,424.165 C1402.55,411.996 1396.14,406.404 1384.63,406.404 C1374.6,406.404 1363.25,413.805 1363.25,430.909 L1363.25,478.766 L1346.8,478.766 L1346.8,393.905 L1362.59,393.905 L1362.59,406.568 C1368.18,398.181 1377.23,391.932 1389.23,391.932 C1407.65,391.932 1419,402.457 1419,421.863" id="Fill-14" fill="#FFFFFF"></path>
        <path d="M1460.77,407.391 L1460.77,458.373 C1460.77,463.307 1463.23,465.609 1470.47,465.609 L1477.87,465.609 L1477.87,478.766 C1474.25,479.095 1470.8,479.259 1467.84,479.259 C1452.54,479.259 1444.32,473.997 1444.32,459.853 L1444.32,407.391 L1430.67,407.391 L1430.67,393.905 L1444.32,393.905 L1444.32,369.565 L1460.77,369.565 L1460.77,393.905 L1477.87,393.905 L1477.87,407.391 L1460.77,407.391" id="Fill-15" fill="#FFFFFF"></path>
        <polyline id="Fill-16" fill="#FFFFFF" points="539.507 64.689 539.507 78.389 481.636 78.389 481.636 0.351 538.411 0.351 538.411 14.052 497.858 14.052 497.858 30.931 534.356 30.931 534.356 44.85 497.858 44.85 497.858 64.689 539.507 64.689"></polyline>
        <path d="M550.465,78.389 L565.919,78.389 L565.919,21.833 L550.465,21.833 L550.465,78.389 Z M550.465,14.38 L565.919,14.38 L565.919,0.351 L550.465,0.351 L550.465,14.38 Z" id="Fill-17" fill="#FFFFFF"></path>
        <path d="M629.268,40.466 L629.268,78.389 L613.813,78.389 L613.813,43.973 C613.813,38.055 611.073,34.328 605.593,34.328 C599.017,34.328 594.523,39.699 594.523,48.138 L594.523,78.389 L579.069,78.389 L579.069,21.833 L594.194,21.833 L594.414,29.506 C598.14,23.368 603.511,20.409 610.745,20.409 C622.472,20.409 629.268,28.19 629.268,40.466" id="Fill-18" fill="#FFFFFF"></path>
        <path d="M655.24,44.193 L680.339,44.193 C679.463,36.301 674.859,31.698 667.845,31.698 C660.83,31.698 656.007,36.411 655.24,44.193 Z M696.342,54.714 L655.35,54.714 C656.007,63.264 660.939,68.305 668.612,68.305 C673.982,68.305 677.709,65.894 679.572,60.962 L694.917,62.058 C691.081,74.333 681.655,80.362 668.941,80.362 C650.198,80.362 639.457,67.209 639.457,49.892 C639.457,33.342 649.979,20.409 667.297,20.409 C684.066,20.409 696.342,32.245 696.342,52.084 L696.342,54.714 L696.342,54.714 Z" id="Fill-19" fill="#FFFFFF"></path>
        <polygon id="Fill-20" fill="#FFFFFF" points="734.26 78.389 750.482 78.389 750.482 0.351 734.26 0.351"></polygon>
        <path d="M814.38,40.466 L814.38,78.389 L798.926,78.389 L798.926,43.973 C798.926,38.055 796.185,34.328 790.706,34.328 C784.129,34.328 779.635,39.699 779.635,48.138 L779.635,78.389 L764.181,78.389 L764.181,21.833 L779.307,21.833 L779.526,29.506 C783.252,23.368 788.623,20.409 795.857,20.409 C807.584,20.409 814.38,28.19 814.38,40.466" id="Fill-21" fill="#FFFFFF"></path>
        <path d="M825.556,61.51 L839.694,60.962 C840.571,66.552 844.407,69.73 851.751,69.73 C857.56,69.73 861.944,67.757 861.944,63.483 C861.944,60.414 859.643,58.77 854.491,57.784 L843.311,55.591 C832.241,53.4 826.871,47.7 826.871,39.041 C826.871,27.643 835.968,20.409 849.888,20.409 C863.588,20.409 872.904,27.423 874.329,38.494 L860.409,39.041 C859.643,34.109 855.477,31.15 849.668,31.15 C844.517,31.15 841.228,33.561 841.228,37.178 C841.228,40.137 843.53,42 847.586,42.877 L859.752,45.398 C871.041,47.7 876.302,52.851 876.302,61.62 C876.302,73.567 866.437,80.471 851.203,80.471 C835.749,80.471 826.98,73.567 825.556,61.51" id="Fill-22" fill="#FFFFFF"></path>
        <path d="M904.906,60.633 C904.906,64.469 906.44,66.004 910.276,66.004 L915.428,66.004 L915.428,78.389 L905.345,78.389 C893.946,78.389 889.452,73.895 889.452,62.496 L889.452,32.904 L881.78,33.232 L881.78,21.833 L889.452,22.053 L889.452,4.407 L904.906,4.407 L904.906,22.162 L915.428,21.833 L915.428,33.232 L904.906,32.904 L904.906,60.633" id="Fill-23" fill="#FFFFFF"></path>
        <path d="M924.194,78.389 L939.648,78.389 L939.648,21.833 L924.194,21.833 L924.194,78.389 Z M924.194,14.38 L939.648,14.38 L939.648,0.351 L924.194,0.351 L924.194,14.38 Z" id="Fill-24" fill="#FFFFFF"></path>
        <path d="M970.993,60.633 C970.993,64.469 972.527,66.004 976.363,66.004 L981.515,66.004 L981.515,78.389 L971.432,78.389 C960.033,78.389 955.539,73.895 955.539,62.496 L955.539,32.904 L947.867,33.232 L947.867,21.833 L955.539,22.053 L955.539,4.407 L970.993,4.407 L970.993,22.162 L981.515,21.833 L981.515,33.232 L970.993,32.904 L970.993,60.633" id="Fill-25" fill="#FFFFFF"></path>
        <path d="M1040.48,21.833 L1040.48,78.389 L1025.35,78.389 L1025.14,70.717 C1021.41,76.855 1016.04,79.814 1008.8,79.814 C997.077,79.814 990.281,72.032 990.281,59.756 L990.281,21.833 L1005.74,21.833 L1005.74,56.249 C1005.74,62.167 1008.48,65.894 1013.96,65.894 C1020.53,65.894 1025.03,60.524 1025.03,52.084 L1025.03,21.833 L1040.48,21.833" id="Fill-26" fill="#FFFFFF"></path>
        <path d="M1071.82,60.633 C1071.82,64.469 1073.36,66.004 1077.19,66.004 L1082.34,66.004 L1082.34,78.389 L1072.26,78.389 C1060.86,78.389 1056.37,73.895 1056.37,62.496 L1056.37,32.904 L1048.7,33.232 L1048.7,21.833 L1056.37,22.053 L1056.37,4.407 L1071.82,4.407 L1071.82,22.162 L1082.34,21.833 L1082.34,33.232 L1071.82,32.904 L1071.82,60.633" id="Fill-27" fill="#FFFFFF"></path>
        <path d="M1091.11,78.389 L1106.57,78.389 L1106.57,21.833 L1091.11,21.833 L1091.11,78.389 Z M1091.11,14.38 L1106.57,14.38 L1106.57,0.351 L1091.11,0.351 L1091.11,14.38 Z" id="Fill-28" fill="#FFFFFF"></path>
        <path d="M1159.72,50.331 C1159.72,39.48 1154.35,32.465 1145.69,32.465 C1137.03,32.465 1131.66,39.48 1131.66,50.331 C1131.66,61.181 1137.03,68.196 1145.69,68.196 C1154.35,68.196 1159.72,61.181 1159.72,50.331 Z M1116.76,50.331 C1116.76,33.232 1128.7,20.409 1145.69,20.409 C1162.68,20.409 1174.63,33.232 1174.63,50.331 C1174.63,67.429 1162.68,80.252 1145.69,80.252 C1128.7,80.252 1116.76,67.429 1116.76,50.331 L1116.76,50.331 Z" id="Fill-29" fill="#FFFFFF"></path>
        <path d="M1234.8,40.466 L1234.8,78.389 L1219.34,78.389 L1219.34,43.973 C1219.34,38.055 1216.6,34.328 1211.12,34.328 C1204.55,34.328 1200.05,39.699 1200.05,48.138 L1200.05,78.389 L1184.6,78.389 L1184.6,21.833 L1199.72,21.833 L1199.94,29.506 C1203.67,23.368 1209.04,20.409 1216.27,20.409 C1228,20.409 1234.8,28.19 1234.8,40.466" id="Fill-30" fill="#FFFFFF"></path>
        <path d="M1312.72,49.892 C1312.72,39.699 1307.46,33.232 1300.01,33.232 C1292.55,33.232 1287.29,39.589 1287.29,49.892 C1287.29,60.304 1292.55,66.661 1300.01,66.661 C1307.46,66.661 1312.72,60.085 1312.72,49.892 Z M1327.41,0.351 L1327.41,78.389 L1313.71,78.389 L1313.16,71.374 C1309.32,77.293 1303.73,80.252 1296.72,80.252 C1282.47,80.252 1272.39,68.086 1272.39,49.892 C1272.39,31.369 1282.69,20.409 1295.51,20.409 C1302.75,20.409 1308.12,22.82 1311.95,27.533 L1311.95,0.351 L1327.41,0.351 L1327.41,0.351 Z" id="Fill-31" fill="#FFFFFF"></path>
        <path d="M1353.38,44.193 L1378.48,44.193 C1377.6,36.301 1373,31.698 1365.99,31.698 C1358.97,31.698 1354.15,36.411 1353.38,44.193 Z M1394.48,54.714 L1353.49,54.714 C1354.15,63.264 1359.08,68.305 1366.75,68.305 C1372.12,68.305 1375.85,65.894 1377.71,60.962 L1393.06,62.058 C1389.22,74.333 1379.8,80.362 1367.08,80.362 C1348.34,80.362 1337.6,67.209 1337.6,49.892 C1337.6,33.342 1348.12,20.409 1365.44,20.409 C1382.21,20.409 1394.48,32.245 1394.48,52.084 L1394.48,54.714 L1394.48,54.714 Z" id="Fill-32" fill="#FFFFFF"></path>
        <path d="M1402.48,61.51 L1416.62,60.962 C1417.5,66.552 1421.33,69.73 1428.68,69.73 C1434.48,69.73 1438.87,67.757 1438.87,63.483 C1438.87,60.414 1436.57,58.77 1431.42,57.784 L1420.24,55.591 C1409.17,53.4 1403.8,47.7 1403.8,39.041 C1403.8,27.643 1412.89,20.409 1426.81,20.409 C1440.51,20.409 1449.83,27.423 1451.25,38.494 L1437.33,39.041 C1436.57,34.109 1432.4,31.15 1426.59,31.15 C1421.44,31.15 1418.15,33.561 1418.15,37.178 C1418.15,40.137 1420.46,42 1424.51,42.877 L1436.68,45.398 C1447.97,47.7 1453.23,52.851 1453.23,61.62 C1453.23,73.567 1443.36,80.471 1428.13,80.471 C1412.67,80.471 1403.91,73.567 1402.48,61.51" id="Fill-33" fill="#FFFFFF"></path>
        <polyline id="Fill-34" fill="#FFFFFF" points="585.156 312.468 585.156 244.898 556.175 312.468 540.088 312.468 511.588 244.898 511.588 312.468 481.636 312.468 481.636 195.429 521.721 195.429 549.264 261.518 578.08 195.429 615.101 195.429 615.101 312.468 585.156 312.468"></polyline>
        <path d="M638.137,312.456 L638.137,195.417 L663.738,195.417 C665.997,195.417 668.226,197.668 668.226,200.099 L668.226,312.456 L638.137,312.456" id="Fill-35" fill="#FFFFFF"></path>
        <path d="M751.319,245.067 L789.361,245.067 C792.367,245.067 794.071,247.52 794.071,250.404 L794.071,310.869 C783.363,313.263 766.643,314.716 754.209,314.716 C710.558,314.716 687.545,293.933 687.545,253.784 C687.545,217.971 710.558,193.16 748.924,193.16 C765.809,193.16 780.616,197.669 790.159,204.105 L778.358,224.241 C770.124,220.552 759.013,217.971 751.16,217.971 C729.104,217.971 718.799,232.605 718.799,253.784 C718.799,276.414 730.729,290.388 752.757,290.388 C756.798,290.388 761.804,290.229 765.809,289.611 L765.809,268.979 L751.319,268.979 L751.319,245.067" id="Fill-36" fill="#FFFFFF"></path>
        <path d="M883.017,312.456 L869.137,280.239 C866.296,273.681 864.311,270.423 858.3,270.423 L846.125,270.423 L846.125,312.456 L816.705,312.456 L816.705,200.099 C816.705,197.668 819.38,195.417 821.285,195.417 L862.823,195.417 C885.382,195.417 904.727,200.099 904.727,229.245 C904.727,242.29 897.5,255.652 883.966,258.349 C890.704,260.643 897.5,269.301 901.188,278.679 L914.564,312.456 L883.017,312.456 Z M860.846,217.969 L846.125,217.969 L846.125,247.317 L860.846,247.317 C869.641,247.317 876.559,242.628 876.559,231.503 C876.559,220.22 869.641,217.969 860.846,217.969 L860.846,217.969 Z" id="Fill-37" fill="#FFFFFF"></path>
        <path d="M979.594,314.719 C941.27,314.719 920.998,287.658 920.998,253.779 C920.998,220.217 941.27,193.163 979.594,193.163 C1015.49,193.163 1035.79,220.217 1035.79,253.779 C1035.79,287.658 1015.49,314.719 979.594,314.719 M979.594,217.966 C963.809,217.966 952.575,229.249 952.575,253.779 C952.575,278.676 963.809,289.916 979.594,289.916 C993.135,289.916 1004.22,278.676 1004.22,253.779 C1004.22,229.249 993.135,217.966 979.594,217.966" id="Fill-38" fill="#FFFFFF"></path>
        <path d="M1093.42,314.719 C1073.64,314.719 1055.25,307.628 1047.06,301.997 L1060.4,278.338 C1067.84,282.839 1082.32,289.765 1095.67,289.765 C1103.22,289.765 1112.77,288.305 1112.77,279.913 C1112.77,272.038 1102.11,269.622 1088.11,265.623 C1071.23,260.776 1051.57,254.052 1051.57,231.335 C1051.57,206.848 1073.31,193.163 1101.63,193.163 C1120.32,193.163 1134.8,199.779 1142.18,206.848 L1125.95,225.351 C1117.91,220.548 1109.69,216.815 1100.49,216.815 C1089.4,216.815 1083.12,221.022 1083.12,227.149 C1083.12,233.219 1091.17,236.318 1101.3,239.368 C1119.2,244.883 1143.64,250.543 1143.64,273.987 C1143.64,298.136 1124.33,314.719 1093.42,314.719" id="Fill-39" fill="#FFFFFF"></path>
        <g id="Group-43" transform="translate(0.060000, 171.374000)">
            <mask id="mask-4" fill="white">
                <use xlink:href="#path-3"></use>
            </mask>
            <g id="Clip-41"></g>
            <path d="M383.857,25.668 L383.857,25.668 C349.633,-8.556 294.145,-8.556 259.921,25.668 L218.693,66.896 L280.661,128.864 C319.214,166.403 314.698,213.945 313.706,219.857 L383.907,149.654 C418.131,115.431 418.081,59.892 383.857,25.668" id="Fill-40" fill="#FFFFFF" mask="url(#mask-4)"></path>
            <path d="M263.277,146.858 L149.545,33.126 L149.542,33.123 C115.318,-1.101 59.831,-1.101 25.607,33.123 C-8.616,67.346 -8.616,122.833 25.607,157.057 L25.609,157.055 L201.312,332.761 L263.277,270.793 C297.5,236.57 297.5,181.081 263.277,146.858" id="Fill-42" fill="#FFFFFF" mask="url(#mask-4)"></path>
        </g>
    </g>
</svg>