<svg xmlns="http://www.w3.org/2000/svg" xmlns:xlink="http://www.w3.org/1999/xlink" viewBox="0 0 146.46 68.31"><defs><style>.cls-1{fill:none;}.cls-2{clip-path:url(#clip-path);}.cls-3{fill:#1d1d1b;}</style><clipPath id="clip-path" transform="translate(0 0)"><rect class="cls-1" width="146.46" height="68.31"/></clipPath></defs><g id="Ebene_2" data-name="Ebene 2"><g id="Ebene_1-2" data-name="Ebene 1"><g class="cls-2"><path class="cls-3" d="M133.9,35.6v6.13c.08-.36.16-.72.23-1.09v-5a23.16,23.16,0,0,0-.11-2.54,19.72,19.72,0,0,0-.12,2.54" transform="translate(0 0)"/><path class="cls-3" d="M67.16,33.78h0V41c.07.39.16.76.25,1.14v-4.9a19.81,19.81,0,0,0-.14-3.26c0-.11,0-.13-.07-.15" transform="translate(0 0)"/></g><rect class="cls-3" x="38.89" y="17.59" width="2.38" height="2.57"/><polygon class="cls-3" points="0 7.54 0 20.16 3.28 20.16 3.28 14.86 5.31 14.86 5.31 12.46 3.28 12.46 3.28 10.07 5.56 10.07 5.56 7.54 0 7.54"/><g class="cls-2"><path class="cls-3" d="M9.54,11.84l1.21,8.32h2l1.14-8.52v8.52H16.8V7.54H12.53l-.76,5.9-.46-3.21c-.14-1-.27-1.93-.39-2.69H6.67V20.16H9.54Z" transform="translate(0 0)"/><path class="cls-3" d="M25.87,12.87a2,2,0,0,1-.15.94.56.56,0,0,1-.48.23.65.65,0,0,1-.43-.18c-.14-.13-.2-.46-.2-1V10.51c0-.58.07-.94.21-1.07a.67.67,0,0,1,.42-.2.5.5,0,0,1,.48.26,2.51,2.51,0,0,1,.15,1.09Zm2.54,6.19A2.9,2.9,0,0,0,29,17.62c.05-.51.07-1.51.07-3V12.85c0-1.39,0-2.32-.07-2.8a3,3,0,0,0-.52-1.39,2.81,2.81,0,0,0-1.25-1A5.33,5.33,0,0,0,25.1,7.3a4.73,4.73,0,0,0-1.79.31,2.79,2.79,0,0,0-1.21.85,2.56,2.56,0,0,0-.54,1.2,13.51,13.51,0,0,0-.1,2v1a6.87,6.87,0,0,0,.18,1.77,2,2,0,0,0,.84,1.12A2.53,2.53,0,0,0,24,16a2.43,2.43,0,0,0,1.16-.25,1.62,1.62,0,0,0,.7-.76v2c0,.47,0,.79,0,.94a.51.51,0,0,1-.18.38.53.53,0,0,1-.39.15.65.65,0,0,1-.46-.15.6.6,0,0,1-.19-.39c0-.15,0-.52,0-1.11H21.46a4.51,4.51,0,0,0,.37,2A2.54,2.54,0,0,0,23,20a4.78,4.78,0,0,0,2.18.43,4.88,4.88,0,0,0,1.9-.34,2.88,2.88,0,0,0,1.29-1" transform="translate(0 0)"/><path class="cls-3" d="M31.7,19.91a4.69,4.69,0,0,0,2.35.5A4.69,4.69,0,0,0,36.21,20a2.47,2.47,0,0,0,1.19-1.26,6.58,6.58,0,0,0,.34-2.34,5.9,5.9,0,0,0-.35-2.58A2,2,0,0,0,36.32,13a2.61,2.61,0,0,0,1-.86,3,3,0,0,0,.29-1.53,3.54,3.54,0,0,0-.8-2.45,4.14,4.14,0,0,0-3.06-.88,4.33,4.33,0,0,0-2.62.64,2.94,2.94,0,0,0-.83,2.44v1.08h3.15v-1a2.4,2.4,0,0,1,.12-.95A.48.48,0,0,1,34,9.24a.46.46,0,0,1,.42.21,1.84,1.84,0,0,1,.14.88V11a2.48,2.48,0,0,1-.12.9.62.62,0,0,1-.38.38,7.11,7.11,0,0,1-1.39.08v1.83a4.93,4.93,0,0,1,1.24.12.82.82,0,0,1,.49.44,2.77,2.77,0,0,1,.16,1.06v.88a5,5,0,0,1-.12,1.46.47.47,0,0,1-.48.28c-.22,0-.37-.07-.43-.22a3.13,3.13,0,0,1-.1-1v-2H30.31v1a8.19,8.19,0,0,0,.27,2.53,2.47,2.47,0,0,0,1.12,1.23" transform="translate(0 0)"/><path class="cls-3" d="M45.57,14.91a2,2,0,0,1,.15-.93.52.52,0,0,1,.48-.24.49.49,0,0,1,.48.25,2,2,0,0,1,.15.92v2.36c0,.58-.07.94-.22,1.07a.63.63,0,0,1-.42.2.5.5,0,0,1-.48-.26,2.74,2.74,0,0,1-.14-1.09ZM43,19.12a2.74,2.74,0,0,0,1.25,1,5.19,5.19,0,0,0,2.08.35,4.9,4.9,0,0,0,1.79-.3,2.81,2.81,0,0,0,1.21-.86,2.53,2.53,0,0,0,.54-1.19,13.6,13.6,0,0,0,.1-2v-1a7,7,0,0,0-.18-1.77A2,2,0,0,0,49,12.26a2.59,2.59,0,0,0-1.53-.47,2.51,2.51,0,0,0-1.15.25,1.69,1.69,0,0,0-.71.76v-2c0-.47,0-.78,0-.94a.62.62,0,0,1,.18-.38.57.57,0,0,1,.4-.15.65.65,0,0,1,.46.16.55.55,0,0,1,.18.38c0,.16,0,.53,0,1.11H50a4.67,4.67,0,0,0-.36-2A2.6,2.6,0,0,0,48.4,7.8a4.76,4.76,0,0,0-2.17-.43,5.07,5.07,0,0,0-1.9.34,3,3,0,0,0-1.3,1,2.84,2.84,0,0,0-.54,1.44c-.05.5-.07,1.51-.07,3v1.74c0,1.4,0,2.34.08,2.82A3.06,3.06,0,0,0,43,19.12" transform="translate(0 0)"/><path class="cls-3" d="M14,37.52c0,1.82-.24,2.9-.73,3.23a4.73,4.73,0,0,1-2.54.5v-9.2a4,4,0,0,1,2.57.61,3.45,3.45,0,0,1,.7,2.58Zm8.8,5.24c.8-1.11,1.2-3.27,1.2-6.5q0-5.28-1.7-7.7a7.16,7.16,0,0,0-4.4-3A58.71,58.71,0,0,0,7.62,25H0V66.35H10.76V47.69c1.48,0,2.4.27,2.75.79s.52,1.9.52,4.12V66.35H24V55.44a38.54,38.54,0,0,0-.27-6.13,6.43,6.43,0,0,0-1.37-2.44q-1.09-1.32-4.29-2.12,3.52-.33,4.73-2" transform="translate(0 0)"/><path class="cls-3" d="M37.39,51.58q.42-5.51,2.07-17.39.81,10.37,1.63,17.39ZM31.24,25,25.75,66.35H36.88l.65-7.44h3.85L42,66.35H53L46.8,25Z" transform="translate(0 0)"/><path class="cls-3" d="M68.94,53.26c0,2.76-.18,4.46-.54,5.08s-1.31.93-2.86.93V32.05a5.23,5.23,0,0,1,2.4.37,1.68,1.68,0,0,1,.82,1.16,21.51,21.51,0,0,1,.18,3.61ZM77.56,28a8.14,8.14,0,0,0-4.18-2.35C71.54,25.2,68,25,62.83,25h-8V66.35H68.35a29.23,29.23,0,0,0,5.78-.42,7.66,7.66,0,0,0,3.22-1.48,5.63,5.63,0,0,0,1.83-2.94,33.77,33.77,0,0,0,.52-7.45V39.56a56.63,56.63,0,0,0-.35-7.88A7.51,7.51,0,0,0,77.56,28" transform="translate(0 0)"/><path class="cls-3" d="M135.7,54.62a20.09,20.09,0,0,1-.31,4.63,1.32,1.32,0,0,1-1.4,1,1.27,1.27,0,0,1-1.37-.85,18.78,18.78,0,0,1-.29-4.44V35.6c0-2.13.14-3.41.44-3.85a1.48,1.48,0,0,1,1.29-.65,1.27,1.27,0,0,1,1.32.81,12.85,12.85,0,0,1,.32,3.69Zm10.46-21.45a10,10,0,0,0-6.18-8,15.65,15.65,0,0,0-6-1.08,15.14,15.14,0,0,0-6.13,1.15,9.86,9.86,0,0,0-6,8,88.3,88.3,0,0,0-.3,8.83V49.2a88.63,88.63,0,0,0,.31,8.95,9.65,9.65,0,0,0,1.92,4.72A9.76,9.76,0,0,0,128,66.13a15.53,15.53,0,0,0,6,1.09,15.18,15.18,0,0,0,6.14-1.15,9.9,9.9,0,0,0,6-8q.29-2.6.29-8.83V42.12a89.5,89.5,0,0,0-.3-8.95" transform="translate(0 0)"/><path class="cls-3" d="M106.38,54.38H96.05V32.19a38.12,38.12,0,0,0-.23-5.78,2.17,2.17,0,0,0-1.26-1.47,13.27,13.27,0,0,0-4.62-.49h-1V19.62Q96.41,18,100.3,13h6.08ZM120,49.2V42.12c0-4.26.1-7.21.3-9a11.47,11.47,0,0,1,7-9.31,16.08,16.08,0,0,1,5.48-1.23,34.16,34.16,0,0,0-64.59.93,29.92,29.92,0,0,1,5.63.66,9.57,9.57,0,0,1,5,2.84,9,9,0,0,1,2.16,4.4,56.61,56.61,0,0,1,.38,8.16v14.5a34.45,34.45,0,0,1-.58,7.86,34.16,34.16,0,0,0,40.45-.49,11,11,0,0,1-.84-3.1A85.74,85.74,0,0,1,120,49.2" transform="translate(0 0)"/></g></g></g></svg>