<?xml version="1.0" encoding="UTF-8" standalone="no"?>
<svg
   xmlns:dc="http://purl.org/dc/elements/1.1/"
   xmlns:cc="http://creativecommons.org/ns#"
   xmlns:rdf="http://www.w3.org/1999/02/22-rdf-syntax-ns#"
   xmlns:svg="http://www.w3.org/2000/svg"
   xmlns="http://www.w3.org/2000/svg"
   xmlns:xlink="http://www.w3.org/1999/xlink"
   xmlns:sodipodi="http://sodipodi.sourceforge.net/DTD/sodipodi-0.dtd"
   xmlns:inkscape="http://www.inkscape.org/namespaces/inkscape"
   inkscape:version="1.0 (4035a4f, 2020-05-01)"
   sodipodi:docname="radio1_b.svg"
   id="svg255"
   version="1.1"
   viewBox="0 0 62 29"
   height="29"
   width="62">
  <metadata
     id="metadata259">
    <rdf:RDF>
      <cc:Work
         rdf:about="">
        <dc:format>image/svg+xml</dc:format>
        <dc:type
           rdf:resource="http://purl.org/dc/dcmitype/StillImage" />
        <dc:title></dc:title>
      </cc:Work>
    </rdf:RDF>
  </metadata>
  <sodipodi:namedview
     inkscape:current-layer="svg255"
     inkscape:window-maximized="1"
     inkscape:window-y="23"
     inkscape:window-x="0"
     inkscape:cy="14.5"
     inkscape:cx="31"
     inkscape:zoom="16.064516"
     showgrid="false"
     id="namedview257"
     inkscape:window-height="855"
     inkscape:window-width="1440"
     inkscape:pageshadow="2"
     inkscape:pageopacity="0"
     guidetolerance="10"
     gridtolerance="10"
     objecttolerance="10"
     borderopacity="1"
     bordercolor="#666666"
     pagecolor="#ffffff" />
  <defs
     id="defs222">
    <path
       d="M0 .932h10.017v17.253H0z"
       id="a" />
    <path
       d="M.677.57h10.38v17.977H.677z"
       id="c" />
    <path
       d="M.404.524h26.927V29H.404z"
       id="e" />
  </defs>
  <g
     style="fill:#000000"
     id="g253"
     fill-rule="evenodd"
     fill="none">
    <g
       style="fill:#000000"
       id="g226"
       fill="#FBFBFB">
      <path
         style="fill:#000000"
         id="path224"
         d="M55.82 14.84v2.557c.034-.151.065-.302.094-.454V14.84a9.3 9.3 0 0 0-.044-1.06 8.4 8.4 0 0 0-.05 1.06M27.999 14.084l-.02-.007v2.995c.032.16.068.318.105.475v-2.045c0-1.019-.045-1.298-.059-1.359-.009-.043-.018-.054-.026-.059" />
    </g>
    <path
       style="fill:#000000"
       id="path228"
       d="M16.214 8.405h.991V7.333h-.991zM0 3.144v5.26h1.368V6.195h.844v-1h-.844v-.998h.949V3.144zM3.979 4.935l.502 3.47h.848l.476-3.551.002 3.55h1.195v-5.26h-1.78l-.314 2.457-.194-1.338c-.056-.43-.11-.802-.162-1.118h-1.77v5.26h1.195l.002-3.47zM11.845 7.944c.133-.188.208-.388.226-.6.017-.211.026-.63.026-1.255v-.731c0-.58-.01-.97-.03-1.17a1.233 1.233 0 0 0-.214-.577 1.178 1.178 0 0 0-.523-.421c-.225-.097-.513-.146-.864-.146-.284 0-.533.042-.748.127a1.169 1.169 0 0 0-.503.356 1.063 1.063 0 0 0-.226.498c-.03.18-.044.454-.044.823v.419c0 .31.025.555.075.737.05.182.167.338.35.468.185.13.397.195.638.195.192 0 .354-.035.484-.105a.668.668 0 0 0 .292-.317v.838c0 .197-.003.328-.008.393a.237.237 0 0 1-.073.159.228.228 0 0 1-.166.062.27.27 0 0 1-.19-.065.246.246 0 0 1-.08-.161 5.995 5.995 0 0 1-.01-.463H8.946c0 .33.052.602.155.819.102.217.27.385.506.504.235.119.538.178.909.178.299 0 .562-.047.789-.141.228-.094.408-.235.54-.424zm-1.061-2.577c0 .193-.021.323-.063.389-.043.066-.11.099-.2.099a.262.262 0 0 1-.177-.078c-.057-.052-.086-.19-.086-.41v-.984c0-.243.03-.392.09-.447.06-.055.12-.083.176-.083.093 0 .16.036.2.107.04.072.06.224.06.455v.952zM13.216 8.3c.237.14.564.21.98.21.366 0 .666-.062.9-.181.234-.12.399-.297.494-.527.095-.23.143-.556.143-.974 0-.564-.05-.922-.146-1.074a.82.82 0 0 0-.446-.33c.202-.109.343-.228.423-.359.08-.13.12-.344.12-.638 0-.436-.112-.774-.335-1.02-.223-.245-.647-.367-1.273-.367-.501 0-.866.088-1.095.265-.23.176-.345.516-.345 1.02v.447h1.313V4.34c0-.202.017-.333.05-.395.034-.062.096-.093.187-.093.08 0 .139.03.177.088.038.06.057.18.057.365v.292c0 .171-.016.296-.05.376a.247.247 0 0 1-.158.156c-.074.024-.266.037-.578.037v.763c.255.004.428.021.516.05a.34.34 0 0 1 .202.184c.045.093.068.24.068.442v.364c0 .33-.016.532-.05.61-.031.078-.098.118-.2.118-.093 0-.153-.03-.181-.093-.027-.061-.04-.207-.04-.434v-.855h-1.313v.416c0 .502.038.852.112 1.056.075.202.23.372.468.513M17.93 7.971c.122.183.296.323.52.421.227.097.516.146.869.146.284 0 .532-.042.746-.127.213-.084.38-.203.503-.355.123-.153.198-.319.226-.499.028-.18.042-.454.042-.822v-.419a2.9 2.9 0 0 0-.074-.738.848.848 0 0 0-.351-.468 1.077 1.077 0 0 0-.637-.195.992.992 0 0 0-.481.106.686.686 0 0 0-.296.317V4.5c0-.197.004-.328.01-.393a.244.244 0 0 1 .075-.159.23.23 0 0 1 .166-.062.27.27 0 0 1 .19.065.245.245 0 0 1 .078.161c.005.064.008.218.008.463h1.312c0-.329-.051-.602-.152-.819a1.071 1.071 0 0 0-.507-.503c-.236-.119-.538-.179-.907-.179-.298 0-.562.047-.791.141a1.224 1.224 0 0 0-.767 1.024c-.018.211-.027.63-.027 1.256v.727c0 .581.01.972.03 1.173.02.202.093.394.215.577zm1.067-1.756c0-.193.022-.322.064-.388.042-.067.109-.1.2-.1.093 0 .16.035.2.105.042.07.063.197.063.383V7.2c0 .243-.031.392-.091.447-.061.055-.12.083-.176.083-.093 0-.16-.036-.2-.107-.04-.072-.06-.223-.06-.455v-.952z"
       fill="#FBFBFB" />
    <g
       style="fill:#000000"
       id="g235"
       transform="translate(0 9.476)">
      <mask
         fill="#fff"
         id="b">
        <use
           id="use230"
           xlink:href="#a" />
      </mask>
      <path
         style="fill:#000000"
         id="path233"
         mask="url(#b)"
         d="M9.516 8.349c.334-.462.5-1.364.5-2.707 0-1.47-.235-2.541-.708-3.213-.472-.671-1.083-1.088-1.833-1.252-.75-.163-2.183-.245-4.3-.245H0v17.253h4.486v-7.779c.618 0 1 .11 1.146.33.145.22.218.792.218 1.716v5.733h4.167v-4.55c0-1.393-.037-2.244-.112-2.553-.075-.309-.265-.648-.57-1.017-.306-.37-.902-.664-1.79-.885.98-.092 1.637-.369 1.97-.831zM5.85 6.164c0 .761-.101 1.21-.303 1.349-.203.138-.556.207-1.061.207V3.884c.519 0 .876.085 1.07.256.197.17.294.529.294 1.076v.948z"
         fill="#FBFBFB" />
    </g>
    <path
       style="fill:#000000"
       id="path237"
       d="M13.025 10.408l-2.29 17.253h4.64l.269-3.101h1.605l.24 3.1h4.586l-2.566-17.252h-6.484zM15.588 21.5c.116-1.527.403-3.942.86-7.246.229 2.877.457 5.292.684 7.246h-1.544zM32.331 11.687c-.398-.455-.979-.781-1.742-.98-.764-.2-2.229-.3-4.396-.3h-3.357v17.254h5.66c1.071 0 1.874-.06 2.408-.176.532-.117.98-.323 1.342-.618.362-.295.616-.703.762-1.225.146-.522.218-1.558.218-3.107v-6.042c0-1.634-.05-2.73-.149-3.287a3.109 3.109 0 0 0-.746-1.52zm-3.59 10.518c0 1.15-.076 1.856-.225 2.115-.149.26-.547.389-1.193.389v-11.35c.49 0 .824.053 1.001.156a.708.708 0 0 1 .341.484c.05.22.075.722.075 1.503v6.703z"
       fill="#FBFBFB" />
    <g
       style="fill:#000000"
       id="g244"
       transform="translate(50 9.476)">
      <mask
         fill="#fff"
         id="d">
        <use
           id="use239"
           xlink:href="#c" />
      </mask>
      <path
         style="fill:#000000"
         id="path242"
         mask="url(#d)"
         d="M10.93 4.353a4.083 4.083 0 0 0-.8-1.971 4.095 4.095 0 0 0-1.774-1.36C7.62.722 6.791.57 5.867.57c-.973 0-1.826.16-2.557.479-.732.32-1.313.778-1.743 1.375A4.128 4.128 0 0 0 .8 4.4C.718 5.12.677 6.349.677 8.083v2.952c0 1.776.043 3.019.128 3.729s.352 1.368.8 1.972a4.083 4.083 0 0 0 1.774 1.359c.735.3 1.565.452 2.488.452.973 0 1.826-.16 2.558-.48.731-.32 1.312-.777 1.742-1.374.43-.597.686-1.255.768-1.977.081-.721.122-1.948.122-3.681V8.083c0-1.776-.043-3.02-.128-3.73zm-4.36 8.94c0 1.017-.042 1.66-.127 1.93-.086.27-.28.405-.587.405-.298 0-.488-.118-.57-.352-.08-.235-.122-.853-.122-1.854V5.365c0-.888.062-1.422.186-1.604a.613.613 0 0 1 .54-.271c.276 0 .458.112.547.336.09.223.133.736.133 1.539v7.929z"
         fill="#FBFBFB" />
    </g>
    <g
       style="fill:#000000"
       id="g251"
       transform="translate(28 -.524)">
      <mask
         fill="#fff"
         id="f">
        <use
           id="use246"
           xlink:href="#e" />
      </mask>
      <path
         style="fill:#000000"
         id="path249"
         mask="url(#f)"
         d="M22.021 21.035v-2.953c0-1.774.042-3.004.127-3.756.094-.83.392-1.6.887-2.286.497-.69 1.174-1.226 2.012-1.592.672-.293 1.44-.466 2.284-.517C25.353 4.446 20.102.525 13.934.525 7.622.524 2.27 4.631.404 10.32c1.057.05 1.834.14 2.35.275.89.232 1.587.63 2.071 1.183.476.544.778 1.162.898 1.835.108.603.16 1.716.16 3.404v6.043c0 1.617-.079 2.69-.24 3.277A14.172 14.172 0 0 0 13.933 29c3.218 0 6.186-1.067 8.57-2.867a4.612 4.612 0 0 1-.35-1.29c-.09-.744-.133-1.99-.133-3.808zm-5.674 2.16h-4.305v-9.25c0-1.337-.03-2.139-.096-2.41-.063-.268-.239-.473-.527-.613-.288-.138-.929-.207-1.923-.207H9.07V8.704c2.082-.449 3.662-1.37 4.742-2.763h2.536v17.253z"
         fill="#FBFBFB" />
    </g>
  </g>
</svg>
