<?xml version="1.0" encoding="UTF-8" standalone="no"?>
<svg
   xmlns:dc="http://purl.org/dc/elements/1.1/"
   xmlns:cc="http://creativecommons.org/ns#"
   xmlns:rdf="http://www.w3.org/1999/02/22-rdf-syntax-ns#"
   xmlns:svg="http://www.w3.org/2000/svg"
   xmlns="http://www.w3.org/2000/svg"
   xmlns:sodipodi="http://sodipodi.sourceforge.net/DTD/sodipodi-0.dtd"
   xmlns:inkscape="http://www.inkscape.org/namespaces/inkscape"
   version="1.1"
   id="svg78"
   width="844.15637"
   height="276.35785"
   viewBox="0 0 844.15637 276.35784"
   sodipodi:docname="sayflowers.svg"
   inkscape:version="1.0 (4035a4f, 2020-05-01)">
  <metadata
     id="metadata84">
    <rdf:RDF>
      <cc:Work
         rdf:about="">
        <dc:format>image/svg+xml</dc:format>
        <dc:type
           rdf:resource="http://purl.org/dc/dcmitype/StillImage" />
        <dc:title></dc:title>
      </cc:Work>
    </rdf:RDF>
  </metadata>
  <defs
     id="defs82" />
  <sodipodi:namedview
     inkscape:document-rotation="0"
     pagecolor="#ffffff"
     bordercolor="#666666"
     borderopacity="1"
     objecttolerance="10"
     gridtolerance="10"
     guidetolerance="10"
     inkscape:pageopacity="0"
     inkscape:pageshadow="2"
     inkscape:window-width="1440"
     inkscape:window-height="855"
     id="namedview80"
     showgrid="false"
     fit-margin-top="10"
     fit-margin-left="10"
     fit-margin-right="10"
     fit-margin-bottom="10"
     inkscape:snap-global="false"
     inkscape:zoom="1.4872685"
     inkscape:cx="331.73074"
     inkscape:cy="115.45931"
     inkscape:window-x="0"
     inkscape:window-y="23"
     inkscape:window-maximized="1"
     inkscape:current-layer="g86" />
  <g
     transform="translate(10,10)"
     inkscape:groupmode="layer"
     inkscape:label="Image"
     id="g86">
    <path
       style="fill:#ffffff;stroke-width:0.32"
       d="m 120.15637,256.26235 c -13.7469,-1.20426 -22.8864,-3.03351 -33.719113,-6.74882 C 45.556077,235.49244 14.215174,201.42392 3.7229111,159.60052 0.9833231,148.6802 0,140.36978 0,128.13686 0,118.7529 0.335608,114.35165 1.6470641,106.53686 9.9563001,57.023326 47.348837,16.334523 95.99637,3.8703819 107.31333,0.97082787 115.43904,-0.00224113 128.31637,3.8742453e-6 141.16187,0.00220387 149.18696,0.98754487 160.63637,3.9681826 c 9.27552,2.414706 16.2502,5.051979 25.12,9.4984084 24.49964,12.281655 44.35162,31.956383 56.6158,56.110275 7.17572,14.132346 10.83222,25.849719 13.21596,42.351044 l 0.70047,4.84896 0.10222,69.7122 0.10223,69.71221 -2.00834,-1.10636 c -1.10459,-0.6085 -12.4064,-6.53998 -25.11514,-13.18106 l -23.10681,-12.0747 -1.85319,1.41659 c -3.01136,2.3019 -8.45345,5.85504 -12.65262,8.2609 -15.25391,8.73951 -31.60489,14.10987 -49.20058,16.15957 -4.08198,0.4755 -19.15926,0.87002 -22.4,0.58613 z m 67.36,-75.97792 c 10.43512,-1.48961 16.30935,-6.51493 18.97305,-16.23118 l 0.85436,-3.11638 0.099,-29.04 0.099,-29.04001 h -6.57268 -6.57273 l -0.003,13.68001 c -0.001,7.95892 -0.14226,14.54987 -0.3368,15.76 -0.67054,4.17116 -2.77965,7.28439 -6.00941,8.87047 -1.6752,0.82265 -2.10006,0.88953 -5.65137,0.88953 -3.32816,0 -4.01062,-0.0922 -5.12,-0.69196 -1.74043,-0.94087 -3.18126,-2.51091 -4.06361,-4.42804 -0.73349,-1.59369 -0.73677,-1.66412 -0.83013,-17.84 l -0.0937,-16.24001 h -6.50865 -6.50864 l -0.24075,13.36001 c -0.13242,7.348 -0.15343,15.088 -0.0467,17.2 0.36075,7.1389 2.17834,11.81669 6.09637,15.68972 3.85357,3.80934 8.05974,5.4835 14.60307,5.8124 4.65729,0.2341 8.05055,-0.38511 11.76605,-2.14711 2.22532,-1.05531 2.68395,-1.17826 2.84356,-0.76233 0.10466,0.27276 0.11082,2.10498 0.0137,4.07162 -0.27767,5.62165 -1.49045,8.57427 -4.28115,10.42275 -1.99714,1.32284 -4.20159,1.79374 -8.26936,1.76642 -5.8937,-0.0396 -10.88297,-1.87257 -14.8373,-5.45103 l -1.92849,-1.74518 -1.07225,1.69137 c -2.53564,3.99995 -5.36182,8.78489 -5.36182,9.07822 0,0.45143 2.47751,2.46396 4.91346,3.9913 3.26958,2.05002 9.54299,4.05221 14.28654,4.55962 2.37809,0.25438 7.62065,0.19518 9.76,-0.11021 z M 73.258547,154.37096 c 9.86593,-0.95924 16.44414,-5.40255 18.247283,-12.32528 1.18681,-4.55645 0.13601,-9.49143 -2.703773,-12.69805 -2.73196,-3.08485 -6.27608,-4.51424 -16.00524,-6.45512 -7.55015,-1.5062 -9.4909,-2.24065 -9.99984,-3.78431 -0.70181,-2.12867 1.56729,-3.87461 5.77084,-4.44032 4.88717,-0.65771 10.44681,0.55973 14.68161,3.21494 1.15871,0.7265 2.14162,1.27887 2.18426,1.22749 0.36826,-0.44385 5.602683,-10.46435 5.602683,-10.72547 0,-1.03751 -5.845833,-3.722 -10.798983,-4.95905 -3.85879,-0.96373 -13.45135,-1.04247 -16.88102,-0.13856 -9.31817,2.45585 -14.4738,8.77423 -13.82777,16.94637 0.35031,4.43139 2.13922,7.60286 5.61709,9.95827 2.79847,1.89529 6.59101,3.12383 13.33348,4.31921 8.48136,1.50366 10.0772,2.19187 10.0772,4.34579 0,2.3064 -2.67639,3.44058 -8.16,3.45798 -5.89582,0.0187 -10.92612,-1.45833 -15.46591,-4.54125 l -1.93808,-1.31613 -2.46008,4.7197 c -1.35303,2.59583 -2.65519,5.03565 -2.89367,5.42182 -0.40185,0.65073 -0.33435,0.78211 0.92207,1.7945 3.87918,3.12577 10.02998,5.29577 16.87849,5.95472 3.82631,0.36817 4.25387,0.36941 7.81936,0.0228 z m 55.057823,-0.56916 c 1.232,-0.2904 3.44702,-1.14382 4.92227,-1.89647 1.47525,-0.75266 2.73525,-1.36846 2.8,-1.36846 0.0648,0 0.11773,0.792 0.11773,1.76 v 1.76 h 6.4 6.4 v -25.6 -25.60001 h -6.72 -6.72 v 1.69262 1.69262 l -2.68866,-1.31637 c -3.43242,-1.68052 -6.66219,-2.38887 -10.89228,-2.38887 -15.30093,0 -25.75499,10.46615 -25.77486,25.80465 -0.0139,10.72487 4.86739,19.18075 13.60387,23.56606 5.15333,2.58673 12.45246,3.33201 18.55193,1.89423 z m -9.6,-12.01628 c -3.64076,-1.20376 -6.90925,-4.19048 -8.18304,-7.47759 -1.00737,-2.5996 -1.2195,-7.39819 -0.45235,-10.23228 1.55898,-5.75933 6.35924,-9.36293 12.48816,-9.37498 5.74529,-0.0113 10.60495,3.33853 12.29661,8.4762 2.43144,7.38438 -0.45534,15.13727 -6.70938,18.01907 -1.43473,0.66111 -2.3514,0.82964 -4.96,0.91189 -2.05664,0.0648 -3.65734,-0.0503 -4.48,-0.32231 z m 275.63402,12.44783 c -4.72391,-0.98558 -8.59712,-3.10783 -11.78752,-6.45874 -3.8762,-4.07117 -6.04615,-9.13229 -6.76765,-15.7847 -0.72352,-6.67076 0.63113,-14.02994 3.47337,-18.86956 4.40356,-7.49806 12.7761,-11.72557 22.00778,-11.11229 3.6489,0.24241 6.05366,0.86675 9.28,2.40938 4.79139,2.29093 7.81418,5.36991 10.24896,10.43943 2.42662,5.05261 3.33824,10.66714 2.72611,16.79014 -0.75504,7.55255 -3.23872,12.98905 -7.87485,17.23723 -2.28604,2.09473 -6.2078,4.23006 -9.26022,5.04203 -2.64218,0.70284 -9.33174,0.87337 -12.04598,0.30708 z m 9.30726,-9.74598 c 3.16707,-0.98569 5.51264,-3.0879 7.08723,-6.35187 1.29834,-2.69136 1.87927,-5.65206 1.88592,-9.61213 0.01,-5.85867 -1.2767,-10.09612 -3.97744,-13.10002 -4.56169,-5.0737 -13.06393,-5.19993 -17.7328,-0.26326 -3.01395,3.1868 -4.20419,6.90591 -4.20419,13.13678 0,9.04985 3.4553,15.02416 9.51504,16.45182 2.1113,0.49742 5.35517,0.38327 7.42624,-0.26132 z m 240.33872,9.74274 c -7.7017,-1.64175 -12.22451,-5.59566 -13.91027,-12.16048 -0.26935,-1.04897 -0.48973,-2.38097 -0.48973,-2.96 v -1.05276 h 5.28 c 5.0945,0 5.28,0.0228 5.28,0.65027 0,1.12923 0.94912,2.98649 2.16259,4.23178 3.55671,3.65004 12.44768,3.60282 15.54874,-0.0826 1.85273,-2.20185 1.75833,-5.2145 -0.21779,-6.94954 -1.45434,-1.27694 -3.62375,-2.09009 -9.97354,-3.73837 -6.7648,-1.75599 -8.65654,-2.46294 -11.14886,-4.16635 -3.4586,-2.36381 -5.18276,-5.30548 -5.54768,-9.46522 -0.65021,-7.41174 4.40243,-13.58466 13.01654,-15.90256 2.87472,-0.77354 9.89533,-0.75675 12.8,0.0306 7.23021,1.95986 11.68294,6.63019 12.61546,13.23196 l 0.19209,1.36 h -5.23312 -5.23312 l -0.3792,-1.26557 c -1.08368,-3.61708 -5.05203,-5.41852 -10.49325,-4.76347 -3.76064,0.45275 -6.18886,2.6028 -6.18886,5.47994 0,2.11769 1.18954,3.70962 3.72086,4.97954 0.7265,0.36445 3.6785,1.25081 6.56,1.96967 6.26858,1.56383 8.90516,2.51983 11.38365,4.12768 4.82621,3.13082 7.12944,8.19091 6.26634,13.76691 -0.94368,6.0967 -4.88368,10.23575 -11.61312,12.19976 -3.07866,0.89852 -11.16691,1.16749 -14.39773,0.47878 z m 46.87498,0.12818 c -0.53076,-0.15448 -1.49479,-0.82549 -2.14231,-1.49114 -3.76467,-3.87017 -1.21885,-9.98831 4.16323,-10.00502 0.93274,-0.003 2.09936,0.20338 2.59248,0.45839 1.30327,0.67393 2.82576,2.53544 3.21239,3.9276 0.41337,1.48859 0.4135,1.56844 0.005,3.03881 -0.89747,3.23151 -4.42147,5.06365 -7.83095,4.07136 z m 44.18172,-0.17021 c -10.85436,-2.42334 -17.39187,-10.90308 -18.3031,-23.74087 -0.41078,-5.78687 1.09066,-12.95435 3.6345,-17.35035 0.66201,-1.144 2.3575,-3.23638 3.76777,-4.64973 4.05223,-4.06108 8.55712,-5.98732 15.04413,-6.43267 8.63334,-0.5927 16.40819,2.97379 20.59114,9.44561 1.26384,1.95541 2.79216,6.07578 2.98102,8.0368 l 0.10784,1.12 h -5.40467 -5.40467 l -0.38263,-1.28 c -1.00048,-3.34721 -2.74179,-5.36262 -5.91344,-6.84435 -2.41952,-1.13035 -6.91088,-1.16678 -9.6791,-0.0785 -3.9145,1.53888 -7.09082,5.91511 -7.93776,10.9363 -0.57373,3.40152 -0.26477,9.83044 0.60147,12.51454 2.01254,6.23623 6.71581,9.54465 13.01046,9.15194 3.13408,-0.19553 4.97108,-0.93797 7.05504,-2.8514 1.45632,-1.33715 3.00567,-3.98535 3.01216,-5.14851 0.003,-0.51185 0.48394,-0.56 5.59514,-0.56 h 5.592 l -0.18912,1.04 c -0.35696,1.963 -1.67043,5.41556 -2.73222,7.18183 -2.41648,4.01972 -7.6185,7.82876 -12.58266,9.21331 -2.76637,0.77155 -9.60579,0.93403 -12.4633,0.29607 z m -457.1367,-25.89121 v -25.76001 h 16.96 16.96 v 4.48 4.48 h -11.52 -11.52 v 6.24001 6.24 h 10.4 10.4 v 4.48 4.48 h -10.4 -10.4 v 10.56 10.56 h -5.44 -5.44 z m 50.88,0 v -25.76001 h 5.44 5.44 v 21.28001 21.28 h 11.04 11.04 v 4.48 4.48 h -16.48 -16.48 z m 122.11811,25.20762 c -0.0934,-0.31219 -3.34905,-11.72762 -7.23475,-25.36763 -3.8857,-13.63999 -7.12874,-24.98316 -7.20678,-25.20703 -0.1122,-0.32189 1.1064,-0.38883 5.82547,-0.32 l 5.96736,0.087 4.04355,16.96001 c 4.85168,20.34964 4.46758,18.8454 4.74262,18.57424 0.12343,-0.1217 2.31274,-8.16669 4.86512,-17.87775 l 4.64068,-17.65647 h 5.10649 5.1065 l 4.62851,17.76001 c 2.5457,9.768 4.67546,17.82 4.73283,17.89333 0.0574,0.0733 0.20231,0.0353 0.32211,-0.0845 0.11981,-0.1198 2.10708,-8.1718 4.41616,-17.89332 l 4.19834,-17.67553 5.82384,-0.0872 c 5.18528,-0.0776 5.82384,-0.0305 5.82384,0.42992 0,0.28443 -3.24,11.80854 -7.2,25.60912 -3.96,13.80059 -7.2,25.16661 -7.2,25.25782 0,0.0912 -2.40998,0.12636 -5.35555,0.0781 l -5.35552,-0.0877 -4.82608,-16.577 c -2.65437,-9.11735 -4.95904,-16.57942 -5.12154,-16.58239 -0.16249,-0.003 -2.46477,7.45666 -5.11622,16.57698 l -4.82077,16.58241 -5.31818,0.0876 c -4.85891,0.0801 -5.33283,0.0386 -5.48803,-0.48 z m 71.48189,-25.20762 v -25.76001 h 17.28 17.28 v 4.48 4.48 h -11.84 -11.84 v 6.24001 6.24 h 11.04902 11.04903 l -0.089,4.4 -0.089,4.4 -10.96,0.0842 -10.96,0.0842 v 6.0758 6.0758 h 12 12 v 4.48 4.48 h -17.44005 -17.44 z m 52.8,-0.0263 v -25.78632 l 12.24,0.13168 c 10.24509,0.11022 12.55293,0.21995 14.16,0.67324 6.49658,1.83242 10.57792,5.96054 11.85626,11.99216 1.57827,7.44663 -1.16128,14.62092 -6.82048,17.8615 -0.83367,0.47738 -1.56954,0.9081 -1.63527,0.95715 -0.0657,0.0491 2.27431,4.46335 5.2,9.80954 2.92573,5.34618 5.31949,9.81642 5.31949,9.93385 0,0.11744 -2.65174,0.21352 -5.89277,0.21352 h -5.89277 l -4.85446,-9.12001 -4.85446,-9.12 h -3.97277 -3.97277 v 9.12 9.12 h -5.44 -5.44 v -25.78632 z m 23.39424,-2.11418 c 2.97517,-1.36334 4.33526,-3.86123 4.04838,-7.43519 -0.163,-2.03049 -1.00665,-4.0993 -2.06025,-5.05209 -0.33315,-0.30128 -1.32048,-0.87295 -2.19405,-1.27038 -1.40013,-0.63699 -2.22336,-0.73704 -6.94832,-0.84448 l -5.36,-0.12189 v 7.9132 7.91319 l 5.36,-0.14009 c 4.91328,-0.12841 5.50954,-0.2086 7.15424,-0.96227 z m 181.72576,2.14048 v -25.76001 h 5.44 5.44 v 10.72 10.72001 h 11.04 11.04 v -10.72001 -10.72 h 5.44 5.44 v 25.76001 25.76 h -5.44 -5.44 v -10.56 -10.56 h -11.04 -11.04 v 10.56 10.56 h -5.44 -5.44 z"
       id="path92" />
  </g>
</svg>
