<?xml version="1.0" encoding="UTF-8" standalone="no"?>
<svg
   xmlns:dc="http://purl.org/dc/elements/1.1/"
   xmlns:cc="http://creativecommons.org/ns#"
   xmlns:rdf="http://www.w3.org/1999/02/22-rdf-syntax-ns#"
   xmlns:svg="http://www.w3.org/2000/svg"
   xmlns="http://www.w3.org/2000/svg"
   xmlns:sodipodi="http://sodipodi.sourceforge.net/DTD/sodipodi-0.dtd"
   xmlns:inkscape="http://www.inkscape.org/namespaces/inkscape"
   inkscape:version="1.0 (4035a4f, 2020-05-01)"
   sodipodi:docname="sbb_b.svg"
   id="svg405"
   version="1.1"
   viewBox="0 0 144 16"
   height="16"
   width="144">
  <metadata
     id="metadata411">
    <rdf:RDF>
      <cc:Work
         rdf:about="">
        <dc:format>image/svg+xml</dc:format>
        <dc:type
           rdf:resource="http://purl.org/dc/dcmitype/StillImage" />
        <dc:title></dc:title>
      </cc:Work>
    </rdf:RDF>
  </metadata>
  <defs
     id="defs409" />
  <sodipodi:namedview
     inkscape:current-layer="svg405"
     inkscape:window-maximized="0"
     inkscape:window-y="23"
     inkscape:window-x="0"
     inkscape:cy="8"
     inkscape:cx="72"
     inkscape:zoom="6.9166667"
     showgrid="false"
     id="namedview407"
     inkscape:window-height="480"
     inkscape:window-width="705"
     inkscape:pageshadow="2"
     inkscape:pageopacity="0"
     guidetolerance="10"
     gridtolerance="10"
     objecttolerance="10"
     borderopacity="1"
     bordercolor="#666666"
     pagecolor="#ffffff" />
  <g
     style="fill:#000000"
     id="g403"
     fill-rule="evenodd"
     fill="#FFF">
    <path
       style="fill:#000000"
       id="path401"
       d="M.083 15.28h45.271V.19H.084v15.09zm42.755-7.545l-5.028 5.029h-2.923l3.939-3.875H33.93v3.875h-2.305V8.889h-4.894l3.938 3.875H27.75l-5.03-5.029 5.03-5.03h2.921l-3.938 3.873h4.894V2.706h2.305v3.872h4.895l-3.939-3.872h2.923l5.028 5.03zM50.026 9.76c-.029 2.603 2.159 3.757 4.496 3.757 2.87 0 4.395-1.447 4.395-3.387 0-2.395-2.368-2.884-3.138-3.076-2.648-.681-3.15-.784-3.15-1.597 0-.887.858-1.199 1.597-1.199 1.112 0 2.012.325 2.085 1.597h2.25c0-2.439-2.028-3.4-4.23-3.4-1.908 0-3.95 1.035-3.95 3.195 0 1.982 1.582 2.587 3.15 3.001 1.553.415 3.137.607 3.137 1.745 0 1.08-1.243 1.318-2.057 1.318-1.243 0-2.336-.55-2.336-1.954M62.671 4.51h2.175c.827 0 1.595.206 1.595 1.213 0 .887-.604 1.259-1.418 1.259h-2.352V4.511zm-2.323 8.758h5.116c1.909 0 3.73-.92 3.73-3.063 0-1.317-.652-2.307-1.94-2.677.919-.444 1.436-1.17 1.436-2.204 0-1.967-1.359-2.616-3.37-2.616h-4.972v10.56zm2.323-4.705h2.53c.99 0 1.67.43 1.67 1.508 0 1.095-.8 1.391-1.716 1.391h-2.484v-2.9zM73.065 4.51h2.175c.827 0 1.595.206 1.595 1.213 0 .887-.604 1.259-1.418 1.259h-2.352V4.511zm-2.323 8.758h5.116c1.909 0 3.728-.92 3.728-3.063 0-1.317-.65-2.307-1.938-2.677.919-.444 1.436-1.17 1.436-2.204 0-1.967-1.36-2.616-3.37-2.616h-4.972v10.56zm2.323-4.705h2.529c.99 0 1.671.43 1.671 1.508 0 1.095-.8 1.391-1.716 1.391h-2.484v-2.9zM94.339 6.255c-.28-2.439-2.234-3.801-4.555-3.801-3.27 0-5.193 2.441-5.193 5.575 0 3.05 1.923 5.489 5.193 5.489 2.587 0 4.407-1.687 4.644-4.32h-2.25c-.176 1.392-.975 2.37-2.394 2.37-2.085 0-2.872-1.778-2.872-3.539 0-1.848.787-3.622 2.872-3.622 1.155 0 2.16.798 2.307 1.848M95.857 13.267h2.323V8.903h4.423V7.099H98.18V4.657h5.103v-1.95h-7.426M134.526 9.76c-.026 2.603 2.157 3.757 4.499 3.757 2.872 0 4.39-1.447 4.39-3.387 0-2.395-2.368-2.884-3.126-3.076-2.65-.681-3.155-.784-3.155-1.597 0-.887.853-1.199 1.598-1.199 1.103 0 2.009.325 2.088 1.597h2.236c0-2.439-2.023-3.4-4.219-3.4-1.916 0-3.952 1.035-3.952 3.195 0 1.982 1.584 2.587 3.155 3.001 1.541.415 3.125.607 3.125 1.745 0 1.08-1.237 1.318-2.048 1.318-1.252 0-2.341-.55-2.341-1.954h-2.25zM117.134 13.267h2.33V8.903h4.416V7.099h-4.417V4.657h5.098v-1.95h-7.427zM126.25 13.267h2.315V8.903h4.417V7.099h-4.417V4.657h5.111v-1.95h-7.426zM104.693 13.267h2.315V8.903h4.417V7.099h-4.417V4.657h5.098v-1.95h-7.413z" />
  </g>
</svg>
