<svg xmlns="http://www.w3.org/2000/svg" xmlns:xlink="http://www.w3.org/1999/xlink" viewBox="0 0 296.71 31.24"><defs><style>.cls-1{fill:none;}.cls-2{fill:#1d1d1b;}.cls-3{clip-path:url(#clip-path);}</style><clipPath id="clip-path" transform="translate(0 0)"><rect class="cls-1" width="296.71" height="31.24"/></clipPath></defs><g id="Ebene_2" data-name="Ebene 2"><g id="Ebene_1-2" data-name="Ebene 1"><path class="cls-2" d="M80.2,13.23l-8.15-8h6L88.51,15.62,78.09,26h-6l8.15-8H70.07v8H65.3V18H55.16l8.16,8h-6L46.86,15.62,57.27,5.21h6l-8.16,8H65.3v-8h4.77v8ZM0,31.24H93.71V0H0Z" transform="translate(0 0)"/><g class="cls-3"><path class="cls-2" d="M103.38,19.81c-.06,5.39,4.48,7.78,9.31,7.78,5.94,0,9.1-3,9.1-7,0-5-4.9-6-6.49-6.37-5.49-1.41-6.52-1.62-6.52-3.31s1.77-2.48,3.3-2.48c2.3,0,4.17.68,4.32,3.31h4.65c0-5.05-4.19-7-8.75-7-4,0-8.18,2.14-8.18,6.61,0,4.1,3.28,5.36,6.52,6.22s6.49,1.25,6.49,3.61-2.57,2.73-4.25,2.73c-2.58,0-4.84-1.14-4.84-4.05" transform="translate(0 0)"/><path class="cls-2" d="M129.56,17.33h5.24c2,0,3.46.89,3.46,3.13s-1.66,2.87-3.55,2.87h-5.15m-4.8,3.74h10.59c4,0,7.72-1.9,7.72-6.34a5.34,5.34,0,0,0-4-5.54,4.8,4.8,0,0,0,3-4.56c0-4.07-2.81-5.42-7-5.42H124.76Zm4.8-18.13h4.5c1.72,0,3.31.43,3.31,2.51,0,1.84-1.26,2.61-2.94,2.61h-4.87Z" transform="translate(0 0)"/><path class="cls-2" d="M151.08,17.33h5.23c2.06,0,3.46.89,3.46,3.13s-1.65,2.87-3.55,2.87h-5.14m-4.81,3.74h10.59c3.95,0,7.72-1.9,7.72-6.34a5.35,5.35,0,0,0-4-5.54,4.8,4.8,0,0,0,3-4.56c0-4.07-2.82-5.42-7-5.42H146.27Zm4.81-18.13h4.5c1.71,0,3.31.43,3.31,2.51,0,1.84-1.26,2.61-2.94,2.61h-4.87Z" transform="translate(0 0)"/><path class="cls-2" d="M195.12,12.56c-.58-5.06-4.62-7.87-9.43-7.87-6.77,0-10.75,5.05-10.75,11.54,0,6.31,4,11.36,10.75,11.36,5.36,0,9.12-3.49,9.61-8.94h-4.65c-.37,2.88-2,4.9-5,4.9-4.32,0-5.94-3.68-5.94-7.32,0-3.83,1.62-7.5,5.94-7.5a4.73,4.73,0,0,1,4.78,3.83" transform="translate(0 0)"/></g><polyline class="cls-2" points="198.26 27.07 203.07 27.07 203.07 18.04 212.22 18.04 212.22 14.3 203.07 14.3 203.07 9.25 213.63 9.25 213.63 5.21 198.26 5.21"/><g class="cls-3"><path class="cls-2" d="M278.31,19.81c-.05,5.39,4.46,7.78,9.31,7.78,5.95,0,9.09-3,9.09-7,0-5-4.9-6-6.47-6.37-5.48-1.41-6.53-1.62-6.53-3.31s1.76-2.48,3.31-2.48c2.28,0,4.16.68,4.32,3.31H296c0-5.05-4.19-7-8.73-7-4,0-8.19,2.14-8.19,6.61,0,4.1,3.28,5.36,6.53,6.22s6.48,1.25,6.48,3.61-2.57,2.73-4.25,2.73c-2.59,0-4.84-1.14-4.84-4.05Z" transform="translate(0 0)"/></g><polygon class="cls-2" points="242.31 27.07 247.13 27.07 247.13 18.04 256.27 18.04 256.27 14.3 247.13 14.3 247.13 9.25 257.68 9.25 257.68 5.21 242.31 5.21 242.31 27.07"/><polygon class="cls-2" points="261.18 27.07 265.97 27.07 265.97 18.04 275.12 18.04 275.12 14.3 265.97 14.3 265.97 9.25 276.55 9.25 276.55 5.21 261.18 5.21 261.18 27.07"/><polygon class="cls-2" points="216.55 27.07 221.34 27.07 221.34 18.04 230.49 18.04 230.49 14.3 221.34 14.3 221.34 9.25 231.9 9.25 231.9 5.21 216.55 5.21 216.55 27.07"/></g></g></svg>