<svg xmlns="http://www.w3.org/2000/svg" width="152" height="34" viewBox="0 0 152 34">
    <g fill="#FFF" fill-rule="evenodd">
        <path d="M74.144 31.114L73.14 8.807a2.125 2.125 0 0 0-2.112-2.044h-4.764v-1.33c0-2.936-2.352-5.316-5.252-5.316-2.902 0-5.255 2.38-5.255 5.316v1.33h-4.762c-1.13 0-2.062.901-2.11 2.044L47.88 31.114a2.153 2.153 0 0 0 .583 1.573c.399.42.95.658 1.526.658h22.044c.579 0 1.127-.238 1.526-.658.399-.422.61-.99.586-1.573zM58.713 5.433c0-1.282 1.03-2.324 2.298-2.324S63.31 4.15 63.31 5.433v1.33h-4.597v-1.33zM52.24 29.027l.819-17.943h2.697v2.823c0 .826.663 1.496 1.479 1.496.816 0 1.478-.67 1.478-1.496v-2.823h4.597v2.823c0 .826.66 1.496 1.478 1.496.815 0 1.475-.67 1.475-1.496v-2.823h2.699l.82 17.943H52.24zM80.712 17.398l4.05-4.902H81.03v-1.413h5.945v1.328l-4.052 4.902h4.158v1.413h-6.368zM92.926 18.725h-1.428v-.77h-.032c-.38.62-1.037.92-1.671.92-1.597 0-1.998-.908-1.998-2.279v-3.403h1.502v3.126c0 .907.264 1.36.96 1.36.817 0 1.166-.464 1.166-1.588v-2.898h1.501v5.532zm-4.369-6.39h1.428v-1.252h-1.428v1.253zm2.181 0h1.428v-1.252h-1.428v1.253zM94.108 13.192h1.429v1.029h.02c.275-.698 1.017-1.179 1.745-1.179.106 0 .233.022.327.053v1.414a2.673 2.673 0 0 0-.538-.054c-1.1 0-1.48.802-1.48 1.777v2.492h-1.503v-5.532zM98.37 12.335h1.502v-1.253H98.37v1.253zm0 6.393h1.502v-5.535H98.37v5.535zM104.742 15.14c-.095-.623-.486-.954-1.112-.954-.961 0-1.278.986-1.278 1.8 0 .791.307 1.743 1.247 1.743.699 0 1.1-.449 1.196-1.122h1.448c-.19 1.466-1.195 2.268-2.634 2.268-1.65 0-2.758-1.179-2.758-2.835 0-1.726 1.013-2.997 2.79-2.997 1.29 0 2.476.683 2.571 2.097h-1.47zM107.123 11.083h1.502v2.88h.032a1.916 1.916 0 0 1 1.598-.921c1.596 0 1.998.91 1.998 2.278v3.406h-1.502V15.6c0-.91-.264-1.36-.961-1.36-.816 0-1.165.46-1.165 1.585v2.901h-1.502v-7.643zM80.713 21.384h1.661v2.933h3.057v-2.933h1.66v7.643h-1.66v-3.299h-3.057v3.299h-1.66zM88.338 25.195c.084-1.424 1.344-1.852 2.572-1.852 1.088 0 2.4.246 2.4 1.574v2.877c0 .505.052 1.007.19 1.231h-1.524a2.265 2.265 0 0 1-.105-.534c-.476.503-1.173.684-1.84.684-1.038 0-1.861-.523-1.861-1.659 0-1.25.928-1.551 1.86-1.68.922-.139 1.777-.107 1.777-.726 0-.655-.443-.752-.971-.752-.573 0-.942.236-.996.837h-1.502zm3.47 1.125c-.254.224-.782.235-1.247.32-.467.096-.89.257-.89.812 0 .57.434.708.92.708 1.174 0 1.216-.942 1.216-1.274v-.566zM99.586 29.026h-1.428v-.77h-.032c-.38.62-1.038.92-1.671.92-1.597 0-1.999-.908-1.999-2.279v-3.403h1.503v3.125c0 .908.264 1.36.963 1.36.814 0 1.162-.463 1.162-1.587v-2.898h1.502v5.532zM100.767 23.492h1.429v.709h.02c.36-.59.954-.859 1.63-.859 1.713 0 2.487 1.403 2.487 2.977 0 1.477-.806 2.858-2.403 2.858-.655 0-1.28-.29-1.64-.836h-.02v2.634h-1.503v-7.483zm4.063 2.784c0-.879-.348-1.787-1.312-1.787-.984 0-1.301.887-1.301 1.787 0 .897.337 1.755 1.312 1.755.982 0 1.301-.858 1.301-1.755zM109.093 23.493h1.1v1.017h-1.1v2.739c0 .515.127.643.634.643.158 0 .308-.01.467-.043v1.187a5.81 5.81 0 0 1-.88.056c-.921 0-1.723-.217-1.723-1.317V24.51h-.91v-1.017h.91v-1.66h1.502v1.66zM111.03 21.384h1.501v2.783h.022c.37-.566 1.048-.825 1.724-.825 1.09 0 2.262.89 2.262 2.912 0 2.033-1.172 2.922-2.262 2.922-.803 0-1.47-.246-1.798-.857h-.021v.708h-1.428v-7.643zm2.73 3.104c-.89 0-1.28.847-1.28 1.776 0 .922.39 1.766 1.28 1.766.886 0 1.28-.844 1.28-1.766 0-.929-.394-1.776-1.28-1.776zM117.399 25.195c.084-1.424 1.344-1.852 2.571-1.852 1.088 0 2.4.246 2.4 1.574v2.877c0 .505.053 1.007.19 1.231h-1.524a2.265 2.265 0 0 1-.104-.534c-.476.503-1.173.684-1.841.684-1.038 0-1.861-.523-1.861-1.659 0-1.25.932-1.551 1.86-1.68.922-.139 1.778-.107 1.778-.726 0-.655-.444-.752-.972-.752-.572 0-.942.236-.995.837H117.4zm3.469 1.125c-.253.224-.782.235-1.246.32-.468.096-.89.257-.89.812 0 .57.433.708.919.708 1.174 0 1.217-.942 1.217-1.274v-.566zM123.568 21.384h1.501v2.88h.032a1.915 1.915 0 0 1 1.598-.922c1.597 0 1.998.911 1.998 2.278v3.407h-1.502V25.9c0-.91-.264-1.36-.963-1.36-.814 0-1.163.46-1.163 1.585v2.9h-1.501v-7.642zM129.87 23.493h1.427v.769h.032a1.947 1.947 0 0 1 1.671-.92c1.597 0 1.999.912 1.999 2.28v3.403h-1.503v-3.126c0-.908-.264-1.356-.96-1.356-.816 0-1.164.459-1.164 1.584v2.898h-1.503v-5.532zM136.172 21.384h1.502v2.88h.032a1.912 1.912 0 0 1 1.597-.922c1.597 0 1.999.911 1.999 2.278v3.407h-1.503V25.9c0-.91-.264-1.36-.96-1.36-.816 0-1.165.46-1.165 1.585v2.9h-1.502v-7.642zM145.063 23.343c1.724 0 2.835 1.157 2.835 2.923 0 1.755-1.111 2.91-2.835 2.91-1.714 0-2.825-1.155-2.825-2.91 0-1.766 1.111-2.923 2.825-2.923m0 4.689c1.027 0 1.333-.89 1.333-1.766 0-.89-.306-1.779-1.333-1.779-1.017 0-1.323.889-1.323 1.779 0 .876.306 1.766 1.323 1.766M149.129 24.51h-.898v-1.018h.898v-.427c0-.973.601-1.68 1.83-1.68.263 0 .538.032.791.042v1.135a4.634 4.634 0 0 0-.548-.032c-.402 0-.57.171-.57.63v.332h1.034v1.018h-1.035v4.517h-1.502V24.51zM4.94 13.016c-.118-.192-.533-.475-1.093-.475-.34 0-.984.248-.984.718.044.598 1.098.82 2.286 1.285 1.106.439 2.289.783 2.289 2.322 0 2.26-1.864 2.775-3.686 2.775-.697 0-3.456-.374-3.477-2.858H2.7c0 .211.034.27.092.424.18.505.724.721 1.188.721.404 0 1.162-.205 1.172-.828.008-.489-.432-.734-1.824-1.145-1.275-.377-2.848-.97-2.861-2.388-.016-1.94 1.647-2.667 3.31-2.667 1.753 0 3.427.623 3.45 2.647H5.058s0-.339-.117-.53M7.722 11.083h2.239v2.562s.736-.422 1.853-.422c1.36 0 2.39.932 2.39 3.275v2.685h-2.189v-2.905c0-.705-.36-1.161-1.017-1.161-.385 0-1.037.163-1.037 1.138v2.928H7.722v-8.1zM20.72 16.215c0 1.774-1.396 3.21-3.123 3.21-1.724 0-3.12-1.436-3.12-3.21 0-1.773 1.396-3.211 3.12-3.211 1.727 0 3.123 1.438 3.123 3.211m-3.136-1.197c-.639 0-1.156.535-1.156 1.195 0 .657.517 1.19 1.156 1.19.641 0 1.162-.533 1.162-1.19 0-.66-.52-1.195-1.162-1.195M16.71 20.934h2.569l2.821 5.274 2.788-5.274H27.6l-4.268 8.127h-2.352z"/>
        <path d="M24.876 13.13c-1.095 0-1.507.291-1.7.404l-.005-.452h-2.16v7.889h-1.045l2.136 4.1 2.17-4.1h-1.027v-1.907c.3.168.93.312 1.597.312.927 0 2.788-.844 2.788-3.195 0-1.333-1.09-3.051-2.754-3.051m-.533 4.272c-.65 0-1.175-.535-1.175-1.192 0-.66.525-1.192 1.175-1.192.652 0 1.177.532 1.177 1.192 0 .657-.525 1.192-1.177 1.192M26.551 29.025h2.226v-5.848H26.55zM29.494 29.025h2.224v-8.092h-2.224zM32.52 29.025h2.226v-8.092H32.52zM39.288 26.902s-.243.697-1.103.697c-.558 0-1.165-.342-1.18-1.026h4.268a3.08 3.08 0 0 0 .034-.472c0-1.772-1.396-3.209-3.12-3.209-1.724 0-3.12 1.437-3.12 3.209 0 1.773 1.396 3.21 3.12 3.21 1.455 0 2.677-1.026 3.023-2.41h-1.922zm-1.114-2.252c.641 0 1.159.534 1.159.906h-2.318c0-.372.52-.906 1.159-.906z"/>
    </g>
</svg>
