<svg xmlns="http://www.w3.org/2000/svg" xmlns:xlink="http://www.w3.org/1999/xlink" viewBox="0 0 232.64 50.43"><defs><style>.cls-1{fill:none;}.cls-2{clip-path:url(#clip-path);}.cls-3{fill:#1d1d1b;}</style><clipPath id="clip-path" transform="translate(0 0)"><rect class="cls-1" width="232.64" height="50.43"/></clipPath></defs><g id="Ebene_2" data-name="Ebene 2"><g id="Ebene_1-2" data-name="Ebene 1"><g class="cls-2"><path class="cls-3" d="M79.81,43.88l1.26-27.24h4.14v4.29a2.27,2.27,0,1,0,4.54,0V16.64h7.06v4.29a2.27,2.27,0,0,0,4.54,0V16.64h4.14l1.26,27.24ZM89.75,8.07a3.53,3.53,0,0,1,7.06,0v2H89.75Zm23.7,39L111.9,13.19a3.23,3.23,0,0,0-3.24-3.1h-7.31v-2a8.07,8.07,0,1,0-16.14,0v2H77.89a3.24,3.24,0,0,0-3.24,3.1L73.11,47a3.25,3.25,0,0,0,3.24,3.39h33.86A3.25,3.25,0,0,0,113.45,47" transform="translate(0 0)"/></g><polygon class="cls-3" points="123.54 26.23 129.76 18.79 124.02 18.79 124.02 16.64 133.15 16.64 133.15 18.66 126.93 26.1 133.32 26.1 133.32 28.24 123.54 28.24 123.54 26.23"/><g class="cls-2"><path class="cls-3" d="M138.93,16.64h2.2v1.9h-2.2Zm-3.34,0h2.19v1.9h-2.19Zm6.71,11.6h-2.2V27.07h0a3,3,0,0,1-2.56,1.4c-2.46,0-3.07-1.38-3.07-3.46V19.84h2.3v4.75c0,1.38.41,2.06,1.48,2.06,1.25,0,1.79-.7,1.79-2.4V19.84h2.31Z" transform="translate(0 0)"/><path class="cls-3" d="M144.11,19.84h2.19V21.4h0A3,3,0,0,1,149,19.62a1.69,1.69,0,0,1,.5.08v2.14a4.1,4.1,0,0,0-.83-.08c-1.69,0-2.27,1.22-2.27,2.7v3.78h-2.31Z" transform="translate(0 0)"/></g><path class="cls-3" d="M150.66,19.84H153v8.4h-2.3Zm2.3-1.3h-2.3v-1.9H153Z" transform="translate(0 0)"/><g class="cls-2"><path class="cls-3" d="M160.44,22.8a1.58,1.58,0,0,0-1.7-1.45c-1.48,0-2,1.5-2,2.73s.47,2.65,1.92,2.65a1.77,1.77,0,0,0,1.83-1.7h2.23a3.76,3.76,0,0,1-4.05,3.44,4.08,4.08,0,0,1-4.24-4.31c0-2.61,1.56-4.54,4.29-4.54,2,0,3.8,1,3.95,3.18Z" transform="translate(0 0)"/><path class="cls-3" d="M164.1,16.64h2.31V21h0a3,3,0,0,1,2.46-1.39c2.45,0,3.07,1.38,3.07,3.46v5.16h-2.31V23.5c0-1.38-.4-2.06-1.48-2.06-1.25,0-1.78.69-1.78,2.4v4.4H164.1Z" transform="translate(0 0)"/></g><polygon class="cls-3" points="123.54 32.28 126.09 32.28 126.09 36.73 130.78 36.73 130.78 32.28 133.33 32.28 133.33 43.88 130.78 43.88 130.78 38.87 126.09 38.87 126.09 43.88 123.54 43.88 123.54 32.28"/><g class="cls-2"><path class="cls-3" d="M140.58,39.77a4.65,4.65,0,0,1-1.92.48c-.71.15-1.36.39-1.36,1.24s.66,1.07,1.41,1.07a1.72,1.72,0,0,0,1.87-1.93Zm-5.33-1.71c.13-2.16,2.06-2.81,3.95-2.81,1.67,0,3.68.37,3.68,2.39V42a4.35,4.35,0,0,0,.3,1.87h-2.34a3.73,3.73,0,0,1-.17-.82,3.81,3.81,0,0,1-2.82,1c-1.59,0-2.86-.79-2.86-2.51,0-1.91,1.43-2.36,2.86-2.55s2.73-.17,2.73-1.11-.68-1.14-1.5-1.14-1.44.36-1.52,1.27Z" transform="translate(0 0)"/><path class="cls-3" d="M152.52,43.88h-2.19V42.71h-.05a3,3,0,0,1-2.56,1.39c-2.46,0-3.07-1.38-3.07-3.46V35.48H147v4.74c0,1.38.41,2.06,1.48,2.06,1.25,0,1.79-.7,1.79-2.4v-4.4h2.3Z" transform="translate(0 0)"/><path class="cls-3" d="M160.58,39.7c0-1.33-.54-2.71-2-2.71s-2,1.35-2,2.71.52,2.67,2,2.67,2-1.3,2-2.67m-6.24-4.22h2.19v1.07h0a2.82,2.82,0,0,1,2.5-1.3c2.64,0,3.82,2.13,3.82,4.52,0,2.24-1.23,4.33-3.68,4.33a3,3,0,0,1-2.52-1.26h0v4h-2.3Z" transform="translate(0 0)"/><path class="cls-3" d="M167.12,35.48h1.69V37h-1.69v4.16c0,.78.2,1,1,1a3.41,3.41,0,0,0,.71-.06v1.8a8.18,8.18,0,0,1-1.34.08c-1.42,0-2.65-.32-2.65-2V37h-1.4V35.48h1.4V33h2.3Z" transform="translate(0 0)"/><path class="cls-3" d="M174.29,37c-1.36,0-2,1.28-2,2.69s.61,2.69,2,2.69,2-1.29,2-2.69-.6-2.69-2-2.69m-4.19-4.71h2.31V36.5h0a3.11,3.11,0,0,1,2.65-1.25c1.67,0,3.47,1.35,3.47,4.42s-1.8,4.43-3.47,4.43a2.92,2.92,0,0,1-2.77-1.3h0v1.08H170.1Z" transform="translate(0 0)"/><path class="cls-3" d="M185.21,39.77a4.61,4.61,0,0,1-1.92.48c-.71.15-1.36.39-1.36,1.24s.66,1.07,1.41,1.07a1.71,1.71,0,0,0,1.87-1.93Zm-5.33-1.71c.13-2.16,2.06-2.81,4-2.81,1.67,0,3.69.37,3.69,2.39V42a4.37,4.37,0,0,0,.29,1.87h-2.34a3.22,3.22,0,0,1-.16-.82,3.82,3.82,0,0,1-2.83,1c-1.59,0-2.86-.79-2.86-2.51,0-1.91,1.43-2.36,2.86-2.55s2.73-.17,2.73-1.11-.68-1.14-1.49-1.14-1.45.36-1.53,1.27Z" transform="translate(0 0)"/><path class="cls-3" d="M189.36,32.28h2.3v4.37h.05a2.94,2.94,0,0,1,2.45-1.4c2.46,0,3.07,1.38,3.07,3.46v5.17h-2.3V39.13c0-1.38-.41-2.06-1.48-2.06-1.25,0-1.79.7-1.79,2.4v4.41h-2.3Z" transform="translate(0 0)"/><path class="cls-3" d="M199,35.48h2.2v1.17h.05a3,3,0,0,1,2.56-1.4c2.46,0,3.07,1.38,3.07,3.46v5.17h-2.3V39.13c0-1.38-.41-2.06-1.48-2.06-1.25,0-1.79.7-1.79,2.4v4.41H199Z" transform="translate(0 0)"/><path class="cls-3" d="M208.71,32.28H211v4.37h0a2.93,2.93,0,0,1,2.45-1.4c2.45,0,3.07,1.38,3.07,3.46v5.17h-2.3V39.13c0-1.38-.41-2.06-1.48-2.06-1.25,0-1.79.7-1.79,2.4v4.41h-2.31Z" transform="translate(0 0)"/><path class="cls-3" d="M222.37,42.37c1.57,0,2-1.35,2-2.68s-.47-2.7-2-2.7-2,1.35-2,2.7.47,2.68,2,2.68m0-7.12a4.12,4.12,0,0,1,4.35,4.44,4.35,4.35,0,1,1-8.69,0,4.12,4.12,0,0,1,4.34-4.44" transform="translate(0 0)"/><path class="cls-3" d="M228.61,37h-1.38V35.48h1.38v-.65c0-1.48.93-2.55,2.81-2.55.41,0,.83,0,1.22.06v1.72a7.58,7.58,0,0,0-.84-.05c-.62,0-.88.27-.88,1v.51h1.59V37h-1.59v6.86h-2.31Z" transform="translate(0 0)"/><path class="cls-3" d="M7.16,19.58a2.07,2.07,0,0,0-1.68-.73C5,18.85,4,19.23,4,20c.07.9,1.69,1.24,3.51,1.95S11,23.08,11,25.42c0,3.43-2.86,4.21-5.66,4.21C4.27,29.63,0,29.07,0,25.29H3.72a1.42,1.42,0,0,0,.14.65A1.87,1.87,0,0,0,5.69,27c.62,0,1.78-.31,1.8-1.26,0-.74-.67-1.11-2.8-1.74-2-.57-4.38-1.47-4.4-3.62,0-2.94,2.53-4,5.08-4,2.7,0,5.27.94,5.3,4H7.34a1.85,1.85,0,0,0-.18-.8" transform="translate(0 0)"/><path class="cls-3" d="M11.44,16.64h3.43v3.89a6.3,6.3,0,0,1,2.85-.64c2.09,0,3.67,1.42,3.67,5v4.08H18V24.53c0-1.07-.55-1.77-1.56-1.77a1.52,1.52,0,0,0-1.6,1.73v4.45H11.44Z" transform="translate(0 0)"/><path class="cls-3" d="M26.58,22.62a1.81,1.81,0,1,0,1.78,1.81,1.8,1.8,0,0,0-1.78-1.81m4.82,1.81a4.8,4.8,0,1,1-4.8-4.87,4.84,4.84,0,0,1,4.8,4.87" transform="translate(0 0)"/></g><polygon class="cls-3" points="25.24 31.59 29.18 31.59 33.52 39.6 37.8 31.59 41.96 31.59 35.41 43.93 31.8 43.93 25.24 31.59"/><g class="cls-2"><path class="cls-3" d="M37,26.23a1.81,1.81,0,1,1,1.81-1.81A1.81,1.81,0,0,1,37,26.23m.82-6.48a4.44,4.44,0,0,0-2.61.61v-.68H31.85v12H30.24l3.28,6.22,3.33-6.22H35.27v-2.9a5.72,5.72,0,0,0,2.46.48A4.59,4.59,0,0,0,42,24.38c0-2-1.68-4.63-4.23-4.63" transform="translate(0 0)"/></g><rect class="cls-3" x="40.35" y="35" width="3.42" height="8.87"/><rect class="cls-3" x="44.87" y="31.59" width="3.42" height="12.28"/><rect class="cls-3" x="49.52" y="31.59" width="3.42" height="12.28"/><g class="cls-2"><path class="cls-3" d="M58.2,37.23A1.77,1.77,0,0,1,60,38.61H56.42a1.78,1.78,0,0,1,1.78-1.38m1.72,3.42a1.76,1.76,0,0,1-1.7,1.06,1.68,1.68,0,0,1-1.81-1.56H63a5.52,5.52,0,0,0,.05-.71,4.86,4.86,0,1,0-.15,1.21Z" transform="translate(0 0)"/></g></g></g></svg>