<?xml version="1.0" encoding="utf-8"?>
<!-- Generator: Adobe Illustrator 25.0.1, SVG Export Plug-In . SVG Version: 6.00 Build 0)  -->
<svg version="1.1" id="Ebene_1" xmlns="http://www.w3.org/2000/svg" xmlns:xlink="http://www.w3.org/1999/xlink" x="0px" y="0px"
	 viewBox="0 0 595.28 318.73" style="enable-background:new 0 0 595.28 318.73;" xml:space="preserve">
<style type="text/css">
	.st0{fill:#010202;}
</style>
<g>
	<path class="st0" d="M74.98,96.93c0-13.58-31.57-12.24-33.74-25.07c-1.75-10.58,8.41-16.58,17.49-16.58
		c14.74,0,19.74,7.83,19.74,7.83l-3.67,4.75c0,0-2-11.83-17.33-11.58c-5,0.08-12.41,3.58-12.41,10.66
		c0,14.83,35.32,12.16,35.32,28.15c-0.08,12.74-13.83,15.74-21.32,15.74c-14.33,0-19.91-8.83-19.91-8.83l3.75-4.66
		c0,0,3.33,12.66,17.33,12.41C67.99,109.59,74.98,105.01,74.98,96.93z"/>
	<path class="st0" d="M84.98,91.93c0-10.41,8.25-18.83,18.33-18.83c10.16,0,18.41,8.41,18.41,18.83c0,10.5-8.25,18.91-18.41,18.91
		C93.22,110.84,84.98,102.42,84.98,91.93z M90.47,92.09c1.25,9.66,7.66,17.33,15.16,17.33c7.5,0,11.83-7.66,10.58-17.33
		c-1.25-9.66-7.75-17.58-15.16-17.58C93.56,74.52,89.23,82.43,90.47,92.09z"/>
	<path class="st0" d="M178.19,104.09V86.01c0-14.08-19.41-13.58-19.41,0.42v17.66c0,2.92,2.42,5.75,2.42,5.75h-9.75
		c0,0,2.42-2.83,2.42-5.75V86.01c0-14.08-19.41-13.83-19.41,0v18.08c0,2.92,2.42,5.75,2.42,5.75h-9.75c0,0,2.42-2.83,2.42-5.75
		V83.35c0-3-2.42-5.75-2.42-5.75l7.33-3.5v6.5c1.92-4.08,6.75-7.5,11.83-7.5c5.25,0,10.41,2.25,12,8.66
		c1.58-5.16,7.41-8.66,12.33-8.66c6.25,0,12.49,3.25,12.49,12.99v17.99c0,2.92,2.42,5.75,2.42,5.75h-9.75
		C175.77,109.84,178.19,107,178.19,104.09z"/>
	<path class="st0" d="M242.16,104.09V86.01c0-14.08-19.41-13.58-19.41,0.42v17.66c0,2.92,2.42,5.75,2.42,5.75h-9.75
		c0,0,2.42-2.83,2.42-5.75V86.01c0-14.08-19.41-13.83-19.41,0v18.08c0,2.92,2.42,5.75,2.42,5.75h-9.75c0,0,2.42-2.83,2.42-5.75
		V83.35c0-3-2.42-5.75-2.42-5.75l7.33-3.5v6.5c1.92-4.08,6.75-7.5,11.83-7.5c5.25,0,10.41,2.25,12,8.66
		c1.58-5.16,7.41-8.66,12.33-8.66c6.25,0,12.49,3.25,12.49,12.99v17.99c0,2.92,2.42,5.75,2.42,5.75h-9.75
		C239.74,109.84,242.16,107,242.16,104.09z"/>
	<path class="st0" d="M259.9,88.51c-0.08,0.5-0.08,0.92-0.08,1.42c0,23.41,19.66,22.41,26.66,13.08l0.75,0.5
		c0,0-4.25,7.33-15.49,7.33c-10.33,0-17.49-7.83-17.49-19.08c0-10.41,7.08-18.66,18.58-18.66c5.25,0,15.74,3.33,15.74,14.33v1.08
		H259.9z M259.98,87.43h23.41c0-7.83-4.67-13.33-11.75-13.33C265.89,74.1,260.9,79.93,259.98,87.43z"/>
	<path class="st0" d="M293.96,77.6l7.25-3.5v7.08c0,0,1.5-8.08,9.41-8.08c8.25,0,8.91,5.58,8.91,5.58h-5.17c0,0-1.17-3.5-4.83-3.42
		c-5.25,0.08-8.33,5.66-8.33,11.25v17.58c0,2.92,2.33,5.75,2.33,5.75h-9.58c0,0,2.33-2.83,2.33-5.75V83.35
		C296.3,80.35,293.96,77.6,293.96,77.6z"/>
	<path class="st0" d="M326.95,110.84h-1.17l23.07-55.56h1.17L326.95,110.84z"/>
	<path class="st0" d="M83.31,132.36c0,0-2.17,2.83-2.17,5.83v47.73h-2.5l-35.15-48.9c-0.08,0.42-0.17,0.75-0.17,1.17v41.9
		c0,3,2.17,5.83,2.17,5.83H40c0,0,2.17-2.83,2.17-5.83v-41.9c0-1.58-0.5-3.17-0.92-4.25c-0.42-1-0.75-1.58-0.75-1.58h5.58
		l33.9,47.15v-41.32c0-3-2.17-5.83-2.17-5.83H83.31z"/>
	<path class="st0" d="M88.81,178.09c0-11.41,22.66-14.99,22.66-14.99c0-8.25-0.75-13.08-7.66-12.91c-5,0.08-6.41,4.58-6.41,4.58
		h-5.16c0,0,1.83-5.58,12.66-5.58c8.91,0,11.5,3.5,11.5,12.74v18.24c0,2.92,2.42,5.75,2.42,5.75h-7.33v-4.08
		c0,0-5.5,5.08-11.99,5.08C93.72,186.92,88.81,184.33,88.81,178.09z M94.39,178c0,12.49,13.66,6.16,17.08,2.5v-16.24
		C111.47,164.26,94.39,168.51,94.39,178z"/>
	<path class="st0" d="M123.38,168.01c0-10.41,8.66-18.83,19.24-18.83c9.83,0,13.16,5.58,13.16,5.58h-5.41c0,0-2.08-4.33-9.16-4.33
		c-7.75,0-13.24,8.91-12.24,18.41c0.92,9.08,6.91,16.66,15.16,16.66c3.58,0,8-1.75,10.16-4.33l0.75,0.5
		c-2.92,3.25-7.75,5.25-13.41,5.25C131.37,186.92,123.38,179.92,123.38,168.01z"/>
	<path class="st0" d="M187.43,180.17v-18.08c0-14.08-19.49-13.83-19.49,0v18.08c0,2.92,2.42,5.75,2.42,5.75h-9.75
		c0,0,2.42-2.83,2.42-5.75v-39.48c0-3-2.42-5.83-2.42-5.83l7.33-3.5v25.32c1.92-4.08,6.83-7.5,11.99-7.5
		c6.16,0,12.41,3.25,12.41,12.99v17.99c0,2.92,2.42,5.75,2.42,5.75h-9.75C185.01,185.92,187.43,183.09,187.43,180.17z"/>
	<path class="st0" d="M200.17,151.52v-1.17c2.58,0,6.41-4.16,6.41-9.08h1.17v9.08h5.91v1.17h-5.91v28.82c0,4.5,1.58,5.25,3.08,5.25
		c1,0,1.83-0.5,1.83-0.5l0.42,0.75c-0.42,0.67-10.25,2.5-10.25-4.83v-29.49H200.17z"/>
	<path class="st0" d="M243.49,178.09c0-7.91-24.07-8.16-24.07-18.83c0-7.08,7.08-10.08,12.83-10.08c9.91,0,13.41,4.91,13.41,4.91
		l-3.08,4c0,0-0.33-8.16-11.16-7.91c-4.17,0.08-8.5,2.33-8.5,7c0,8.58,24.82,7.41,24.82,18.24c0,9.16-9.41,11.5-15.08,11.5
		c-10.41,0-13.58-5.33-13.58-5.33l3.25-4.08c0,0,1.5,8.75,11.16,8.41C238.82,185.75,243.49,183.59,243.49,178.09z"/>
	<path class="st0" d="M256.64,186.92h-1.17l23.07-55.56h1.17L256.64,186.92z"/>
	<path class="st0" d="M42.33,256.17v-41.9c0-3-2.33-5.83-2.33-5.83h12.16c10.66,0,19.83,2.08,19.66,10.58
		c-0.08,3.83-1.75,9.41-12.74,11.33c12.74,1.83,17.41,7.75,17.41,14.24c0,7.33-2.58,17.41-24.49,17.41H40
		C40,262,42.33,259.17,42.33,256.17z M51.83,229.85c11.33,0,15.33-5.5,15.33-11.25c0-7.66-8.08-9.08-15.83-9.08h-4.08v20.32H51.83z
		 M51.99,260.92c15.99,0,18.74-9,18.74-16.33c0-9.25-9.08-13.66-18.91-13.66h-4.58v25.24c0,2.08,0.5,4.75,3.08,4.75H51.99z"/>
	<path class="st0" d="M81.15,254.17c0-11.41,22.66-14.99,22.66-14.99c0-8.25-0.75-13.08-7.66-12.91c-5,0.08-6.41,4.58-6.41,4.58
		h-5.16c0,0,1.83-5.58,12.66-5.58c8.91,0,11.5,3.5,11.5,12.74v18.24c0,2.92,2.42,5.75,2.42,5.75h-7.33v-4.08
		c0,0-5.5,5.08-11.99,5.08C86.06,263,81.15,260.42,81.15,254.17z M86.73,254.09c0,12.49,13.66,6.16,17.08,2.5v-16.24
		C103.8,240.34,86.73,244.59,86.73,254.09z"/>
	<path class="st0" d="M116.55,210.94l7.25-3.5v48.81c0,2.92,2.33,5.75,2.33,5.75h-9.58c0,0,2.33-2.83,2.33-5.75v-39.48
		C118.88,213.77,116.55,210.94,116.55,210.94z"/>
	<path class="st0" d="M132.2,210.94l7.25-3.5v48.81c0,2.92,2.33,5.75,2.33,5.75h-9.58c0,0,2.33-2.83,2.33-5.75v-39.48
		C134.54,213.77,132.2,210.94,132.2,210.94z"/>
	<path class="st0" d="M151.53,263h-1.17l23.07-55.56h1.17L151.53,263z"/>
</g>
<g>
	<path class="st0" d="M449.22,103.35l-0.79,6.48h-36.8v-1.14c13.14-18.75,29.71-33.21,30.76-42.15c0.79-6.48-2.28-13.23-12.97-13.06
		c-9.55,0.18-11.3,11.65-11.3,11.65h-5.43c0,0,0.96-12.71,17.7-12.71c13.93,0,18.49,9.73,17.53,15.95
		c-1.4,8.94-9.46,13.06-29.79,40.31h20.86C446.68,108.7,449.22,103.35,449.22,103.35z"/>
	<path class="st0" d="M494.61,91.43c0,10.69-7.45,19.45-20.59,19.45c-30.32,0-27.17-51.79,11.3-58.45v1.05
		c-11.39,3.07-19.89,11.39-24.27,23.92c2.89-2.1,6.92-4.12,12.97-4.38C486.46,72.42,494.61,80.48,494.61,91.43z M488.65,91.35
		c0-7.8-4.56-16.91-15.25-16.65c-6.31,0.18-15.25,4.91-13.93,17.09l-0.09-0.26c1.05,9.64,6.48,18.05,16.39,17.96
		C486.2,109.31,488.65,99.32,488.65,91.35z"/>
	<path class="st0" d="M500.74,106.94c0-2.02,1.67-3.68,3.68-3.68c2.01,0,3.68,1.67,3.68,3.68c0,2.02-1.67,3.68-3.68,3.68
		C502.41,110.63,500.74,108.96,500.74,106.94z"/>
	<path class="st0" d="M555.25,91.43c0,10.69-7.45,19.45-20.59,19.45c-30.32,0-27.17-51.79,11.3-58.45v1.05
		c-11.39,3.07-19.89,11.39-24.27,23.92c2.89-2.1,6.92-4.12,12.97-4.38C547.1,72.42,555.25,80.48,555.25,91.43z M549.29,91.35
		c0-7.8-4.56-16.91-15.25-16.65c-6.31,0.18-15.25,4.91-13.93,17.09l-0.09-0.26c1.05,9.64,6.48,18.05,16.39,17.96
		C546.83,109.31,549.29,99.32,549.29,91.35z"/>
	<path class="st0" d="M442.03,179.43l-0.79,6.48h-36.8v-1.14c13.14-18.75,29.71-33.21,30.76-42.15c0.79-6.48-2.28-13.23-12.97-13.06
		c-9.55,0.18-11.3,11.65-11.3,11.65h-5.43c0,0,0.96-12.71,17.7-12.71c13.93,0,18.49,9.73,17.53,15.95
		c-1.4,8.94-9.46,13.06-29.79,40.31h20.86C439.49,184.78,442.03,179.43,442.03,179.43z"/>
	<path class="st0" d="M446.41,157.79c0-16.12,8.76-29.27,23.22-29.27c13.06,0,23.75,10.34,23.75,29.09
		c0,15.51-8.85,29.36-23.31,29.36C457.02,186.97,446.41,173.91,446.41,157.79z M452.37,159.63c1.4,14.98,8.41,25.15,19.72,25.15
		c9.81,0,15.86-13.58,15.34-28.65c-0.53-15.86-8.68-25.68-19.89-25.41C457.72,130.97,450.97,144.73,452.37,159.63z"/>
	<path class="st0" d="M498.64,132.38v-0.79l7.89-3.07v51.26c0,3.15,2.45,6.13,2.45,6.13H498.9c0,0,2.45-2.98,2.45-6.13v-47.41
		H498.64z"/>
	<path class="st0" d="M555.25,167.52c0,10.69-7.45,19.45-20.59,19.45c-30.32,0-27.17-51.79,11.3-58.45v1.05
		c-11.39,3.07-19.89,11.39-24.27,23.92c2.89-2.1,6.92-4.12,12.97-4.38C547.1,148.5,555.25,156.56,555.25,167.52z M549.29,167.43
		c0-7.8-4.56-16.91-15.25-16.65c-6.31,0.18-15.25,4.91-13.93,17.09l-0.09-0.26c1.05,9.64,6.48,18.05,16.39,17.96
		C546.83,185.39,549.29,175.4,549.29,167.43z"/>
	<path class="st0" d="M327.07,205.65h10.08c0,0-2.45,2.98-2.45,6.13v31.63c0,12.09,5.35,18.32,15.77,18.32
		c8.68,0,16.74-5.52,16.74-18.58v-31.37c0-3.15-2.28-6.13-2.28-6.13h5.78c0,0-2.28,2.98-2.28,6.13v31.37
		c0,5.52-1.67,19.89-19.45,19.89c-17.88,0-19.37-12.71-19.45-19.63v-31.63C329.53,208.63,327.07,205.65,327.07,205.65z
		 M348.89,196.1c0,2.02-1.58,3.68-3.59,3.68c-2.1,0-3.68-1.67-3.68-3.68s1.58-3.68,3.68-3.68
		C347.32,192.42,348.89,194.08,348.89,196.1z M361.07,196.1c0,2.02-1.58,3.68-3.59,3.68c-2.1,0-3.68-1.67-3.68-3.68
		s1.58-3.68,3.68-3.68C359.5,192.42,361.07,194.08,361.07,196.1z"/>
	<path class="st0" d="M378.42,255.95v-41.54c0-3.15-2.45-7.62-2.45-7.62l7.62-2.19v25.94c1.49-2.54,5.26-7.19,14.11-7.19
		c10.78,0,18.4,7.54,18.4,18.4c0,13.67-9.29,21.29-20.16,21.29c-8.06,0-12.36-5.35-12.36-5.35V262h-7.62
		C375.97,262,378.42,259.02,378.42,255.95z M383.59,233.34v14.02c0,9.2,7.89,14.55,14.2,14.37c7.97-0.26,12.44-7.27,12.44-18.4
		c0-10.34-6.57-18.67-15.16-18.49C386.31,225.02,383.59,233.34,383.59,233.34z"/>
	<path class="st0" d="M427.14,239.57c-0.09,0.53-0.09,0.96-0.09,1.49c0,24.62,20.68,23.57,28.04,13.76l0.79,0.53
		c0,0-4.47,7.71-16.3,7.71c-10.87,0-18.4-8.24-18.4-20.07c0-10.95,7.45-19.63,19.54-19.63c5.52,0,16.56,3.51,16.56,15.07v1.14
		H427.14z M427.23,238.43h24.62c0-8.24-4.91-14.02-12.36-14.02C433.45,224.4,428.19,230.54,427.23,238.43z"/>
	<path class="st0" d="M462.54,228.09l7.62-3.68v7.45c0,0,1.58-8.5,9.9-8.5c8.68,0,9.38,5.87,9.38,5.87h-5.43
		c0,0-1.23-3.68-5.08-3.59c-5.52,0.09-8.76,5.96-8.76,11.83v18.49c0,3.07,2.45,6.05,2.45,6.05h-10.08c0,0,2.45-2.98,2.45-6.05
		v-21.82C464.99,230.98,462.54,228.09,462.54,228.09z"/>
	<path class="st0" d="M491.1,253.76c0-12.01,23.84-15.77,23.84-15.77c0-8.68-0.79-13.76-8.06-13.58c-5.26,0.09-6.75,4.82-6.75,4.82
		h-5.43c0,0,1.93-5.87,13.32-5.87c9.38,0,12.09,3.68,12.09,13.41v19.19c0,3.07,2.54,6.05,2.54,6.05h-7.71v-4.29
		c0,0-5.78,5.35-12.62,5.35C496.27,263.05,491.1,260.33,491.1,253.76z M496.97,253.67c0,13.14,14.37,6.49,17.96,2.63v-17.09
		C514.94,239.21,496.97,243.68,496.97,253.67z"/>
	<path class="st0" d="M528.08,208.28l7.62-3.68v51.35c0,3.07,2.45,6.05,2.45,6.05h-10.08c0,0,2.45-2.98,2.45-6.05v-41.54
		C530.53,211.26,528.08,208.28,528.08,208.28z"/>
	<path class="st0" d="M544.29,208.28l7.62-3.68v51.35c0,3.07,2.45,6.05,2.45,6.05h-10.08c0,0,2.45-2.98,2.45-6.05v-41.54
		C546.74,211.26,544.29,208.28,544.29,208.28z"/>
</g>
</svg>
