<svg id="de-fr-it" xmlns="http://www.w3.org/2000/svg" viewBox="0 0 241.85 70.87"><defs><style>.cls-1{fill:#e2001a;}</style></defs><polygon class="cls-1" points="227.68 28.35 213.5 28.35 213.5 14.17 199.33 14.17 199.33 28.35 185.16 28.35 185.16 42.52 199.33 42.52 199.33 56.69 213.5 56.69 213.5 42.52 227.68 42.52 227.68 28.35"/><path d="M106.16,39.88V28.35h2.3c1.45,0,4.05.15,4.05,3.3a3.2,3.2,0,0,1-1.64,3l2,5.25h-2.41l-2-5.32h0v5.32Zm2.28-6.58.4,0c1,0,1.45-.7,1.45-1.65a1.3,1.3,0,0,0-1.54-1.44h-.31Z"/><path d="M119.12,36c0,2-.63,4-2.94,4s-2.93-2-2.93-4,.63-4,2.93-4S119.12,34.05,119.12,36Zm-3.71,0c0,.44,0,2.07.77,2.07S117,36.47,117,36s0-2.08-.79-2.08S115.41,35.58,115.41,36Z"/><path d="M19.2,31a2.61,2.61,0,0,0-1.65-.74,1.06,1.06,0,0,0-1.15,1.14c0,1.89,3.47,2,3.47,5.12,0,2.05-1.18,3.59-3.32,3.59a3.57,3.57,0,0,1-2-.58V37.31a2.93,2.93,0,0,0,1.73.61,1.24,1.24,0,0,0,1.32-1.25c0-.89-.71-1.23-1.35-1.68-1.31-.89-2.12-1.75-2.12-3.43s1.05-3.39,3-3.39a3.89,3.89,0,0,1,2,.56Z"/><path d="M24.79,39.76a3,3,0,0,1-1.24.27c-2.09,0-2.83-2.2-2.83-4,0-1.94.77-4.07,3-4.07a2.64,2.64,0,0,1,1.07.23v1.9a.84.84,0,0,0-.63-.25c-1.05,0-1.28,1.27-1.28,2.07S23.05,38,24.13,38a1.12,1.12,0,0,0,.66-.23Z"/><path d="M28.24,27.54v5.81h0A2,2,0,0,1,30.06,32c1.59,0,1.45,1.78,1.45,2.89v5H29.35V35.64c0-.39.15-1.47-.53-1.47-.49,0-.58.51-.58.89v4.82H26.08V27.54Z"/><path d="M34.3,32.16l1,4.52h0l1-4.52h1.85l1,4.52h0l.15-.82.92-3.7h2l-2.14,7.72H38.45l-.71-2.62L37.28,35h0l-.44,2.46-.61,2.39H34.39l-2.18-7.72Z"/><path d="M48.18,36.59H44.76c0,.57,0,1.79.82,1.79.55,0,.68-.43.68-.89H48.1c-.19,1.43-.87,2.54-2.45,2.54-2.19,0-3-1.94-3-3.85S43.36,32,45.61,32c1.42,0,2.73,1.27,2.61,3.7Zm-1.82-1.51c0-.51-.11-1.42-.78-1.42s-.8.88-.8,1.37v.23h1.58Z"/><path d="M48.85,29.85a1.37,1.37,0,1,1,2.73,0,1.37,1.37,0,1,1-2.73,0Zm2.44,2.31v7.72H49.14V32.16Z"/><path d="M57.7,32.16l-2.39,5.93h2.13v1.79H52.27L54.71,34h-2.2V32.16Z"/><path d="M63.73,36.59H60.32c0,.57,0,1.79.81,1.79.56,0,.69-.43.69-.89h1.84c-.19,1.43-.88,2.54-2.45,2.54-2.19,0-3-1.94-3-3.85S58.92,32,61.16,32c1.43,0,2.74,1.27,2.62,3.7Zm-1.82-1.51c0-.51-.1-1.42-.78-1.42s-.79.88-.79,1.37v.23h1.57Z"/><path d="M66.87,32.16v.93h0a2.19,2.19,0,0,1,1.76-1.22V34c-.11,0-.22,0-.34,0-1.44,0-1.45,1-1.45,2.1v3.85H64.71V32.16Z"/><path d="M69.22,29.85a1.37,1.37,0,1,1,2.74,0,1.37,1.37,0,1,1-2.74,0Zm2.45,2.31v7.72H69.51V32.16Z"/><path d="M76.61,34.24a1.51,1.51,0,0,0-1-.51.52.52,0,0,0-.58.57c0,.9,2.46.72,2.46,3A2.45,2.45,0,0,1,75,40a3.73,3.73,0,0,1-2.32-.89l.95-1.52a1.65,1.65,0,0,0,1.07.5.61.61,0,0,0,.62-.64c0-1-2.46-.77-2.46-3.21A2.35,2.35,0,0,1,75.42,32a3.31,3.31,0,0,1,2.06.66Z"/><path d="M82.3,39.76a2.91,2.91,0,0,1-1.24.27c-2.09,0-2.82-2.2-2.82-4,0-1.94.76-4.07,3-4.07a2.64,2.64,0,0,1,1.07.23v1.9a.83.83,0,0,0-.63-.25c-1,0-1.28,1.27-1.28,2.07S80.56,38,81.65,38a1.12,1.12,0,0,0,.65-.23Z"/><path d="M85.34,27.54v5.81h0A2,2,0,0,1,87.16,32c1.6,0,1.46,1.78,1.46,2.89v5H86.46V35.64c0-.39.15-1.47-.53-1.47-.49,0-.59.51-.59.89v4.82H83.19V27.54Z"/><path d="M95.33,36.59H91.92c0,.57,0,1.79.81,1.79.55,0,.69-.43.69-.89h1.83C95.07,38.92,94.38,40,92.8,40c-2.18,0-3-1.94-3-3.85S90.51,32,92.76,32c1.42,0,2.74,1.27,2.61,3.7Zm-1.82-1.51c0-.51-.11-1.42-.78-1.42s-.8.88-.8,1.37v.23h1.58Z"/><path d="M100.09,34.24a1.51,1.51,0,0,0-1-.51.53.53,0,0,0-.58.57c0,.9,2.46.72,2.46,3A2.45,2.45,0,0,1,98.45,40a3.73,3.73,0,0,1-2.32-.89l1-1.52a1.65,1.65,0,0,0,1.07.5.61.61,0,0,0,.62-.64c0-1-2.46-.77-2.46-3.21A2.35,2.35,0,0,1,98.9,32a3.31,3.31,0,0,1,2.06.66Z"/><path d="M122.83,30v2.14h.89v1.77h-.89v6h-2.15v-6h-.75V32.16h.75V30Z"/><path d="M130,36.59h-3.42c0,.57,0,1.79.81,1.79.56,0,.69-.43.69-.89h1.84c-.18,1.43-.87,2.54-2.45,2.54-2.18,0-3-1.94-3-3.85S125.15,32,127.4,32c1.42,0,2.73,1.27,2.61,3.7Zm-1.82-1.51c0-.51-.11-1.42-.79-1.42s-.79.88-.79,1.37v.23h1.58Z"/><path d="M134.83,34.24a1.51,1.51,0,0,0-1-.51.52.52,0,0,0-.58.57c0,.9,2.46.72,2.46,3a2.45,2.45,0,0,1-2.48,2.7,3.73,3.73,0,0,1-2.32-.89l.95-1.52a1.65,1.65,0,0,0,1.07.5.61.61,0,0,0,.62-.64c0-1-2.46-.77-2.46-3.21A2.35,2.35,0,0,1,133.64,32a3.33,3.33,0,0,1,2.06.66Z"/><path d="M143.2,28.35V33.5h0l1.89-5.15h2.33l-2.13,5.32,2.4,6.21h-2.4L143.23,34h0v5.87h-2.28V28.35Z"/><path d="M150.74,32.16v.93h0a2.19,2.19,0,0,1,1.76-1.22V34a3.11,3.11,0,0,0-.33,0c-1.44,0-1.46,1-1.46,2.1v3.85h-2.15V32.16Z"/><path d="M158.5,36.59h-3.41c0,.57,0,1.79.81,1.79.56,0,.69-.43.69-.89h1.84c-.19,1.43-.87,2.54-2.45,2.54-2.19,0-3-1.94-3-3.85s.68-4.18,2.93-4.18c1.42,0,2.73,1.27,2.61,3.7Zm-1.82-1.51c0-.51-.1-1.42-.78-1.42s-.79.88-.79,1.37v.23h1.57Z"/><path d="M161.69,32.16v4.23c0,.43-.17,1.62.55,1.62s.53-.76.53-1.14l0-4.71h2.14v4.92c0,1.79-.84,3-2.75,3-2.45,0-2.65-1.83-2.65-3.24V32.16Z"/><path d="M171.25,32.16l-2.39,5.93H171v1.79h-5.17L168.26,34h-2.2V32.16Z"/><path d="M112.5,50.64l2.6,6h-1.21l-2.3-5.82h0v5.82h-1.07V45.14h1.07v5.24h0l2.3-5.24h1.2Z"/><path d="M120,56.69h-1v-.61h0a1.53,1.53,0,0,1-1.3.73c-1.26,0-1.87-.7-1.87-4.13,0-1.76.06-4,2-4a1.38,1.38,0,0,1,1.21.66h0v-.54h1Zm-2-7.17c-1.11,0-1.17,1.75-1.17,3.08,0,3.25.54,3.4,1.12,3.4,1,0,1.15-.9,1.15-3.37C119.13,50.93,119,49.52,118,49.52Z"/><path d="M122.64,49.46a2,2,0,0,1,1.55-.75c1.39,0,1.51,1.29,1.51,2.36v5.62h-1V51.18c0-.94-.06-1.66-.89-1.66-1.13,0-1.18,1.24-1.18,2.07v5.1h-1V48.83h1Z"/><path d="M130,49.75h-1.3v6.94h-1V49.75h-.85v-.92h.85V46.69h1v2.14H130Z"/><path d="M135,52.75c0,1.49-.18,4.06-2.25,4.06s-2.25-2.57-2.25-4.06.18-4,2.25-4S135,51.28,135,52.75Zm-3.47,0c0,.77,0,3.13,1.22,3.13S134,53.52,134,52.75s0-3.1-1.23-3.1S131.56,52,131.56,52.75Z"/><path d="M137.42,49.46a2,2,0,0,1,1.55-.75c1.39,0,1.52,1.29,1.52,2.36v5.62h-1V51.18c0-.94-.06-1.66-.89-1.66-1.13,0-1.18,1.24-1.18,2.07v5.1h-1V48.83h1Z"/><path d="M146.43,55.71h2.91v1h-4.23l3.21-10.57h-2.9v-1h4.24Z"/><path d="M151.81,48.83v4.94c0,1.07.06,2.11,1,2.11s1.06-1,1.07-2.11V48.83h1v5.78a2.06,2.06,0,1,1-4.11,0V48.83Zm0-3a.71.71,0,1,1-.7.71A.71.71,0,0,1,151.79,45.83Zm2.15,0a.71.71,0,1,1-.71.71A.71.71,0,0,1,153.94,45.83Z"/><path d="M157.46,49.88h0c.22-.56.65-1.18,1.3-1.17v1.17l-.19,0c-1,0-1.14,1-1.14,2.25v4.58h-1V48.83h1Z"/><path d="M160.34,47.26a.75.75,0,1,1,0-1.49.75.75,0,0,1,0,1.49Zm.49,9.43h-1V48.83h1Z"/><path d="M165.6,50.17a1.4,1.4,0,0,0-.95-.52c-1.29,0-1.41,2.23-1.41,3.14s.16,3.09,1.34,3.09a1.22,1.22,0,0,0,1-.7h0v1.24a1.94,1.94,0,0,1-1.14.39c-1.81,0-2.25-2.54-2.25-3.89s.31-4.21,2.3-4.21a2.14,2.14,0,0,1,1.09.31Z"/><path d="M167.92,49.46a2,2,0,0,1,1.55-.75c1.44,0,1.52,1.26,1.52,2.36v5.62h-1V51.24c0-1.23-.14-1.72-.89-1.72-1.13,0-1.18,1.24-1.18,2.07v5.1h-1V44.44h1Z"/></svg>