<svg xmlns="http://www.w3.org/2000/svg" xmlns:xlink="http://www.w3.org/1999/xlink" viewBox="0 0 136.24 82.02"><defs><style>.cls-1{fill:none;}.cls-2{clip-path:url(#clip-path);}.cls-3{fill:#1d1d1b;}</style><clipPath id="clip-path" transform="translate(0)"><rect class="cls-1" width="136.24" height="82.02"/></clipPath></defs><g id="Ebene_2" data-name="Ebene 2"><g id="Ebene_1-2" data-name="Ebene 1"><g class="cls-2"><path class="cls-3" d="M38.09,47.13l2.17-10H52.81l2.17,10h9.9L52.41,0H40.66L28.18,47.13ZM46.47,8.19h.13l4.56,21.18H41.91ZM38,70h9V65.62H38V59.33h9.54V54.92H32.57v26.7H47.86V77.21H38ZM10.3,47.13h9.5V7.79H30.1V0H0V7.79H10.3ZM21.35,74.67h-.08L18.13,54.92H13L9.83,74.67H9.75L6.8,54.92H1.64L6.5,81.62h6l3-19.37h.08l3,19.37h6l4.86-26.7H24.3Zm70-19.75H85.48l-6.81,10.7h-.08V54.92H73.21v26.7h5.38V73.69l2-3,5.49,11h6.06L84.06,66.36Zm24.82.2c-6,0-7.43,5.68-7.43,13.45S110.12,82,116.13,82s7.44-5.68,7.44-13.45-1.42-13.45-7.44-13.45m0,25c-3.62,0-5-3.1-5-11.58s1.42-11.58,5-11.58,5.05,3.1,5.05,11.58-1.42,11.58-5.05,11.58m9.77-20.47v1.64h6V81.57h2.24V55.12h-1.71c-.15,2.8-2.1,4.52-6.58,4.56m-7.55-20.34L136,7.19V0H108.84V7.79H125L107.66,40.2v6.93h28.58V39.34ZM95.16,59.68v1.64h6V81.57h2.24V55.12h-1.71c-.16,2.8-2.1,4.52-6.58,4.56M78.55,14.12h.13l11.62,33h10.82V0H92.41V32.28h-.13L80.79,0h-11V47.13h8.72ZM68.39,76.61c-.11-5.65-.64-7.67-4.3-8.15v-.08c3-.63,4.45-3,4.45-6.58,0-4.6-2.66-6.88-7.11-6.88H51.49v26.7h5.38V70.33h2.88c2.21,0,3.06,1.27,3.18,3.36l.15,5.13a4.84,4.84,0,0,0,.67,2.8h5.83v-.23c-1-.56-1.16-1.94-1.19-4.78m-9.28-10H56.87V58.88h2.54c2.51,0,3.74,1.24,3.74,3.71,0,2.88-1.46,4-4,4" transform="translate(0)"/></g></g></g></svg>