<?xml version="1.0" encoding="UTF-8" standalone="no"?>
<svg
   xmlns:dc="http://purl.org/dc/elements/1.1/"
   xmlns:cc="http://creativecommons.org/ns#"
   xmlns:rdf="http://www.w3.org/1999/02/22-rdf-syntax-ns#"
   xmlns:svg="http://www.w3.org/2000/svg"
   xmlns="http://www.w3.org/2000/svg"
   xmlns:xlink="http://www.w3.org/1999/xlink"
   xmlns:sodipodi="http://sodipodi.sourceforge.net/DTD/sodipodi-0.dtd"
   xmlns:inkscape="http://www.inkscape.org/namespaces/inkscape"
   inkscape:version="1.0 (4035a4f, 2020-05-01)"
   sodipodi:docname="tanzwerk_b.svg"
   id="svg565"
   version="1.1"
   viewBox="0 0 62 38"
   height="38"
   width="62">
  <metadata
     id="metadata569">
    <rdf:RDF>
      <cc:Work
         rdf:about="">
        <dc:format>image/svg+xml</dc:format>
        <dc:type
           rdf:resource="http://purl.org/dc/dcmitype/StillImage" />
        <dc:title></dc:title>
      </cc:Work>
    </rdf:RDF>
  </metadata>
  <sodipodi:namedview
     inkscape:current-layer="svg565"
     inkscape:window-maximized="0"
     inkscape:window-y="23"
     inkscape:window-x="0"
     inkscape:cy="19"
     inkscape:cx="31"
     inkscape:zoom="4.6290323"
     showgrid="false"
     id="namedview567"
     inkscape:window-height="480"
     inkscape:window-width="705"
     inkscape:pageshadow="2"
     inkscape:pageopacity="0"
     guidetolerance="10"
     gridtolerance="10"
     objecttolerance="10"
     borderopacity="1"
     bordercolor="#666666"
     pagecolor="#ffffff" />
  <defs
     id="defs556">
    <path
       d="M.572.337h60.636v36.967H.572z"
       id="a" />
  </defs>
  <g
     style="fill:#000000"
     id="g563"
     fill-rule="evenodd"
     fill="none">
    <mask
       fill="#fff"
       id="b">
      <use
         id="use558"
         xlink:href="#a" />
    </mask>
    <path
       style="fill:#000000"
       id="path561"
       mask="url(#b)"
       d="M26.882 30.348h-.999v-3.473h1.133c1.112 0 1.664.559 1.664 1.67 0 1.299-.651 1.803-1.798 1.803zm4.127 4.517c-.048-2.543-.283-3.453-1.915-3.674v-.033c1.35-.287 1.982-1.347 1.982-2.966 0-2.075-1.182-3.1-3.163-3.1h-4.426v12.034h2.396v-5.093h1.282c.982 0 1.365.575 1.413 1.518l.067 2.31c.016.47.051.926.301 1.265h2.595v-.104c-.45-.254-.516-.875-.532-2.157zM35.53 6.702h.057l5.171 14.877h4.819V.337h-3.88v14.549h-.055L36.53.336h-4.878V21.58h3.88V6.702zm7.393 20.533v.742h2.695V37.1h.998V25.18h-.764c-.07 1.264-.934 2.038-2.929 2.055zm10.322-9.168L61.09 3.581V.337H49.016v3.51h7.197l-7.724 14.607v3.125h12.72v-3.512h-7.963zm3.361 9.168v.742H59.3V37.1h.999V25.18h-.765c-.067 1.264-.931 2.038-2.927 2.055zm-4.347 9.228c-1.613 0-2.243-1.398-2.243-5.22s.63-5.218 2.243-5.218c1.613-.003 2.245 1.396 2.245 5.217 0 3.823-.632 5.221-2.245 5.221zm0-11.283c-2.676 0-3.309 2.56-3.309 6.062 0 3.504.633 6.063 3.309 6.063 2.68 0 3.311-2.56 3.311-6.063 0-3.502-.632-6.062-3.311-6.062zm-11.048-.088h-2.595l-3.032 4.82h-.032v-4.82h-2.396v12.034h2.396V33.55l.88-1.365 2.447 4.94h2.698l-3.594-6.88 3.228-5.154zm-31.14 8.899h-.032l-1.4-8.899H6.343l-1.397 8.899h-.034l-1.315-8.899H1.302l2.163 12.034h2.68l1.329-8.732h.035l1.33 8.732h2.681l2.165-12.034h-2.3l-1.313 8.899zM5.154 21.579h4.231V3.848h4.583V.337H.572v3.51h4.582V21.58zm12.308 10.32h3.995v-1.987h-3.995V27.08h4.245v-1.988h-6.641v12.034h6.806v-1.991h-4.41v-3.236zm3.79-27.874h.06l2.027 9.55h-4.114l2.028-9.55zm-3.73 17.554l.968-4.493h5.584l.969 4.493h4.407L23.896.337h-5.228l-5.554 21.242h4.407z"
       fill="#FFF" />
  </g>
</svg>
