<svg xmlns="http://www.w3.org/2000/svg" width="126" height="26" viewBox="0 0 126 26">
    <g fill="#FFF" fill-rule="evenodd">
        <path d="M47.07 7.315c0 1.256.988 1.745 2.112 1.745.737 0 1.86-.21 1.86-1.175 0-1.02-1.43-1.191-2.836-1.56-1.419-.372-2.85-.913-2.85-2.683 0-1.93 1.847-2.855 3.574-2.855 1.992 0 3.824.86 3.824 3.04h-2.035c-.066-1.137-.88-1.428-1.884-1.428-.668 0-1.445.278-1.445 1.072 0 .727.456.818 2.85 1.426.695.172 2.834.61 2.834 2.749 0 1.731-1.375 3.026-3.97 3.026-2.117 0-4.095-1.03-4.069-3.357h2.034zM56.726 3.615h1.393v1.256h-1.393v3.383c0 .635.16.793.803.793.2 0 .386-.013.59-.052v1.466a7.533 7.533 0 0 1-1.11.065c-1.164 0-2.183-.263-2.183-1.625v-4.03h-1.15V3.615h1.15V1.567h1.9v2.048zM59.481 5.717c.109-1.758 1.698-2.286 3.251-2.286 1.379 0 3.037.304 3.037 1.942v3.555c0 .62.066 1.242.24 1.52h-1.927a2.828 2.828 0 0 1-.131-.66c-.603.619-1.488.845-2.33.845-1.31 0-2.352-.648-2.352-2.049 0-1.547 1.176-1.916 2.353-2.075 1.163-.17 2.247-.132 2.247-.899 0-.806-.564-.926-1.232-.926-.72 0-1.189.292-1.255 1.033h-1.9zm4.388 1.388c-.321.276-.99.291-1.58.395-.587.12-1.123.318-1.123 1.004 0 .702.55.873 1.166.873 1.485 0 1.537-1.162 1.537-1.573v-.7zM72.443 9.576h-.027c-.441.74-1.218 1.058-2.1 1.058-2.086 0-3.106-1.77-3.106-3.66 0-1.84 1.032-3.545 3.067-3.545.813 0 1.618.346 2.045 1.019h.027V1.011h1.9v9.438h-1.806v-.873zm-1.658-4.732c-1.245 0-1.674 1.058-1.674 2.181 0 1.07.495 2.194 1.674 2.194 1.258 0 1.631-1.084 1.631-2.207 0-1.11-.402-2.168-1.631-2.168zM78.421 3.615h1.392v1.256H78.42v3.383c0 .635.16.793.803.793.2 0 .39-.013.589-.052v1.466a7.5 7.5 0 0 1-1.11.065c-1.163 0-2.182-.263-2.182-1.625v-4.03h-1.15V3.615h1.15V1.567h1.9v2.048zM84.696 8.809l5.124-6.053h-4.724V1.01h7.519V2.65L87.49 8.703h5.258v1.744h-8.053zM100.466 10.448h-1.808v-.952h-.039c-.481.767-1.31 1.136-2.113 1.136-2.018 0-2.53-1.123-2.53-2.813V3.615h1.9v3.859c0 1.122.338 1.68 1.22 1.68 1.028 0 1.47-.57 1.47-1.956V3.615h1.9v6.833zm-5.524-7.89h1.806V1.013h-1.806V2.56zm2.756 0h1.806V1.013h-1.806V2.56zM102.244 3.615h1.806v1.27h.026c.35-.86 1.284-1.454 2.207-1.454.135 0 .296.026.414.065v1.745a3.501 3.501 0 0 0-.68-.066c-1.39 0-1.872.99-1.872 2.195v3.079h-1.9V3.615zM107.972 2.558h1.9V1.011h-1.9v1.547zm0 7.892h1.9V3.617h-1.9v6.833zM116.21 6.02c-.121-.767-.616-1.175-1.406-1.175-1.216 0-1.619 1.214-1.619 2.217 0 .98.39 2.156 1.58 2.156.881 0 1.392-.554 1.51-1.388h1.835c-.243 1.812-1.514 2.802-3.332 2.802-2.087 0-3.49-1.453-3.49-3.502 0-2.126 1.282-3.7 3.529-3.7 1.635 0 3.13.846 3.253 2.59h-1.86zM119.38 1.012h1.9v3.554h.04a2.432 2.432 0 0 1 2.017-1.136c2.022 0 2.53 1.124 2.53 2.816v4.202h-1.898V6.589c0-1.123-.337-1.68-1.218-1.68-1.032 0-1.471.57-1.471 1.959v3.58h-1.9V1.012zM45.61 15.627h.91v5.076l5.551-5.076h1.231l-4.268 3.9 4.468 5.536h-1.176l-3.974-4.917-1.831 1.68v3.237h-.911zM60.044 25.064h-.777v-1.228h-.026c-.443.91-1.35 1.425-2.382 1.425-1.74 0-2.42-1.003-2.42-2.59v-4.427h.84v4.44c.043 1.23.512 1.878 1.848 1.878 1.445 0 2.074-1.35 2.074-2.738v-3.58h.843v6.82zM61.983 25.064h.842v-9.438h-.842zM66.116 18.245h1.403v.7h-1.403v4.6c0 .542.08.86.682.898.241 0 .481-.012.72-.038v.712c-.252 0-.494.026-.747.026-1.123 0-1.512-.372-1.497-1.532v-4.666h-1.205v-.7h1.205v-2.05h.842v2.05zM74.664 25.064h-.777v-1.228h-.026c-.442.91-1.353 1.425-2.382 1.425-1.739 0-2.42-1.003-2.42-2.59v-4.427h.841v4.44c.04 1.23.508 1.878 1.848 1.878 1.444 0 2.07-1.35 2.07-2.738v-3.58h.846v6.82zM76.59 18.245h.776v1.599h.026c.429-1.097 1.364-1.745 2.608-1.693v.832c-1.524-.078-2.568 1.032-2.568 2.447v3.635h-.842v-6.82zM35.867 16.853c-.09.002-.18.018-.261.042l-.44-1.566.224-.286c.671-.86 1.07-1.36 1.37-1.932.464-.87.403-1.742.253-2.29-.336-1.232-1.318-1.524-1.905-1.492-.879.04-1.416.519-1.642 1.07-.24.596-.194 1.212-.087 1.649l.771 3.032c-.236.304-.441.621-.582.795l-1.457-5.61 3.255-2.37c1.87-1.356 1.85-3.535 1.24-4.71-.582-1.126-1.403-1.696-2.118-1.956A3.94 3.94 0 0 0 34 1.08c-.006-.097-.008-.166-.012-.195-.012-.146-.186-.214-.335-.245-.33-.067-.428.068-.428.117l-.01.195c-.794-.086-2.495-.075-2.495-.075l.006.46v1.15l.675.077c.063.003.151.068.149.188 0 .127-.098.194-.19.22a.44.44 0 0 1-.156.024H31.2l-2.082-.226.256.782c.807.09 1.445.146 1.914.172h.065c.54 0 .978-.434.978-.972a.975.975 0 0 0-.929-.968v-.19c.28.006.622.019.998.052.034.138.108.307.258.464.16.17.335.3.487.394l-.008.242s.021.398-.015.728c-.037.33-.237.58-.97.606-.696.026-1.552-.112-1.552-.112l.048.51c-.284.158-.564.385-.924.702a3.87 3.87 0 0 0-.677.834l-.878-1.668c.186-.25.297-.55.297-.877 0-.827-.765-1.495-1.569-1.495-.536 0-.992.239-1.273.606l.134-1.568H12.034l.134 1.568c-.276-.367-.734-.606-1.27-.606-.806 0-1.572.668-1.572 1.495 0 .328.113.627.3.877l-.879 1.668a3.83 3.83 0 0 0-.679-.834c-.358-.317-.637-.544-.921-.702l.05-.51s-.86.138-1.555.112c-.732-.026-.932-.276-.968-.606-.037-.33-.014-.728-.014-.728l-.013-.242c.155-.093.326-.223.49-.394.15-.157.22-.326.258-.464.376-.033.716-.046.996-.052v.19a.976.976 0 0 0-.931.968c0 .538.44.972.984.972h.061a35.679 35.679 0 0 0 1.916-.172l.255-.782-2.079.226h-.011a.42.42 0 0 1-.152-.024c-.094-.026-.19-.093-.192-.22 0-.12.086-.185.15-.188l.674-.078v-1.15l.008-.46s-1.703-.01-2.5.076L4.564.756c0-.049-.094-.184-.423-.117-.153.031-.324.099-.34.245l-.01.195c-.132.03-.271.072-.484.15-.717.26-1.54.83-2.118 1.956C.579 4.36.56 6.539 2.428 7.895l3.255 2.37-1.458 5.61c-.14-.174-.34-.491-.578-.795l.77-3.032c.106-.437.148-1.053-.091-1.648-.227-.552-.758-1.03-1.639-1.071-.588-.032-1.572.26-1.908 1.492a3.142 3.142 0 0 0 .254 2.29c.3.572.7 1.072 1.372 1.932l.22.286-.434 1.566a1.098 1.098 0 0 0-.263-.042.882.882 0 0 0-.93.873.92.92 0 0 0 .93.918.919.919 0 0 0 .785-.424c.142-.21.27-.748.423-1.266l.208-.702.6.77c-.37 1.389-1.742 6.469-1.762 6.545-.235.99.66 1.84 1.586 1.835.826-.01 1.621-.666 1.587-1.586-.015-.431-.19-.747-.464-.957l1.514-2.366 2.848 3.978c.223.32.397.463.426.486.287.289.686.465 1.129.465.792 0 1.607-.702 1.607-1.57 0-.868-.694-1.599-1.61-1.44-.026.007-.047.01-.069.015l-2.015-5.689c-.164-.431-.384-.764-.587-.953-.295-.274-.716-.271-.887-.263a2.12 2.12 0 0 0-.276.047l1.51-3.225 1.892 1.41a1.598 1.598 0 0 0 1.198.335l.523 5.299c.166 1.776 1.042 3.336 2.332 4.433v.013h.013a6.875 6.875 0 0 0 4.458 1.638c3.556 0 6.48-2.655 6.8-6.084l.527-5.299a1.598 1.598 0 0 0 1.198-.336l1.889-1.409 1.51 3.225a2.107 2.107 0 0 0-.276-.047c-.169-.008-.592-.01-.884.263-.203.189-.426.522-.587.953l-2.016 5.69c-.021-.006-.045-.009-.069-.016-.915-.159-1.61.572-1.61 1.44s.816 1.57 1.608 1.57c.442 0 .842-.176 1.126-.465.032-.023.206-.166.429-.486l2.85-3.978 1.511 2.366c-.279.21-.447.526-.466.957-.031.92.763 1.575 1.587 1.586.926.005 1.826-.845 1.59-1.835-.02-.076-1.39-5.156-1.766-6.545l.602-.77.205.702c.153.518.285 1.056.428 1.266a.918.918 0 0 0 .784.424.918.918 0 0 0 .928-.918.883.883 0 0 0-.928-.873zM3.52 11.983l-.574 2.168-.395-.522c-.242-.351-.862-1.217-.862-2.288 0-.53.46-1.134 1.039-1.08.724.068 1.01.885.792 1.722zm23.348-9.045c.355 0 .675.335.675.679 0 .246-.13.465-.333.581l1.395 2.679c-.116.288-.2.574-.248.829-.042.255-.071.424-.089.541l-1.998-4.303a.745.745 0 0 1-.08-.327c0-.375.304-.68.678-.68zM22.936 1.71h.64l-.05 1.084h.629l.05-1.084h.647l-.107 1.676h-1.89l.081-1.676zm-.105 2.288h1.877l-.055.87H22.79L22.83 4zm-4.045 1.484h5.828l-.071 1.074H13.25l-.066-1.074h5.602zM18 4H19.795l-.013.87H18.01L18 4zm2.498-2.288h.612l-.039 1.084h.621l.04-1.084h.555l-.059 1.676h-1.764l.034-1.676zm-.048 2.288h1.758l-.03.87h-1.746L20.45 4zM18.558 1.71l.005 1.084h.673V1.71h.588L19.8 3.387H17.992l-.02-1.676h.586zm-1.195 3.158h-1.747L15.584 4h1.758l.021.87zm-1.3-3.158l.037 1.084h.623l-.039-1.084h.61l.035 1.676h-1.766l-.055-1.676h.555zm-1.057 3.158h-1.864L13.087 4h1.873l.046.87zm-1.42-3.158l.054 1.084h.628l-.05-1.084h.64l.08 1.676h-1.89l-.106-1.676h.645zm-3.002 2.487a.67.67 0 0 1-.337-.581c0-.344.324-.68.676-.68.377 0 .679.305.679.68a.724.724 0 0 1-.08.327L9.524 8.247c-.02-.117-.046-.286-.09-.541a3.92 3.92 0 0 0-.247-.83l1.397-2.678zM7.129 16.245c.431.088.623.434.705.641.063.167 1.508 4.223 2.1 5.882l.024.073.223.624.045-.068c.116-.146.305-.231.544-.231a.66.66 0 0 1 0 1.32.688.688 0 0 1-.46-.179c-.12-.1-.408-.476-.408-.476l-.384-.535-.113-.156-2.48-3.458c.261-.409.454-.804.454-1.137 0-.795-.537-1.326-1.185-1.326l.443-.938c.071-.042.223-.094.492-.036zM5.155 17.58l-.11.252a.906.906 0 0 1 .463-.125.914.914 0 0 1 .907 1.066l-.01.047a.59.59 0 0 1-.022.078l-.004.013c-.061.185-.182.38-.182.38l-.7 1.084-.224.346-1.076 1.664-.108.174-.381.582h.039c.4-.01.682.31.682.674 0 .275-.232.65-.643.65-.421 0-.7-.283-.7-.65 0-.032-.002-.125.019-.203L6.489 10.87l1.335.98-2.67 5.731zm6.329-4.381a.722.722 0 0 1-.592-.104l-1.11-.814-.685-.499-6.15-4.516c-.584-.43-1.387-1.306-1.273-2.758.091-1.19 1.051-2.258 2.097-2.58 0 .278 0 .556.008.767.029.616.105 1.081.155 1.271.074.307.363.783 1.152.8.271.009.595-.002.903-.012.163.057.345.133.532.226 1.02.518 1.574 1.366 1.784 1.742.515.978.534 1.95.371 2.673L7.184 8.283l-.216.9 2.874 2.098.294.21.68.5a.803.803 0 0 1 .518-.203l.01-.005c.506-.008.745.36.735.744-.008.272-.285.584-.595.673zm.778-2.033c-.1-.718-.165-1.438-.165-1.438l1.426 1.506h-1.17c-.03-.022-.056-.05-.09-.068zm.717.954h1.479l.826.788H12.95a1.43 1.43 0 0 0 .073-.437c0-.122-.018-.237-.044-.351zm-.524 1.674h3.76l.829.79h-4.531a35.377 35.377 0 0 0-.058-.79zm.124 1.678h5.397l.827.782h-6.167l-.057-.782zm.124 1.668h7.032l.826.786h-7.777c-.029-.26-.06-.518-.081-.786zm.205 1.672h8.584l.83.788H13.05c-.053-.252-.097-.52-.142-.788zm6.036 5.905c-1.01 0-2.095-.2-3.215-.884h6.284c-.78.525-2.052.884-3.069.884zm4.032-1.77H14.66a5.06 5.06 0 0 1-.642-.786h9.653c-.183.24-.405.507-.695.785zm-9.421-1.678a7.097 7.097 0 0 1-.284-.785h9.98l.828.785H13.555zm11.968-10.147a1.58 1.58 0 0 0-.705 1.312c0 .453.193.86.5 1.147l-.058.705-.131 1.583-.263 3.154a5.744 5.744 0 0 1-.268 1.393L12.766 9.177h12.92l-.163 1.946zM11 8.3l.262 2.619c-.145.007-.29.041-.419.085l-1.274-.948 2.74-5.825.252 2.988h12.675l.252-2.988 2.742 5.825-1.276.948a1.6 1.6 0 0 0-.418-.085l.26-2.619H10.999zm17.698 3.482l-.684.499-1.11.814a.736.736 0 0 1-.592.104c-.31-.089-.587-.4-.593-.673-.013-.383.224-.752.732-.744l.01.005c.2.005.385.08.519.203l.682-.5.292-.21 2.874-2.098-.216-.9-1.493 1.113a3.873 3.873 0 0 1 .372-2.673c.21-.376.763-1.224 1.784-1.742.187-.093.365-.17.531-.226.309.01.632.02.9.013.792-.018 1.08-.494 1.155-.8.054-.19.125-.656.154-1.272.008-.21.01-.489.008-.767 1.047.322 2.005 1.39 2.099 2.58.114 1.452-.689 2.329-1.273 2.758l-6.15 4.516zm-.31 11.357l-.11.156-.385.535s-.286.377-.408.476a.694.694 0 0 1-.463.179.662.662 0 0 1-.666-.657c0-.37.3-.663.666-.663.243 0 .43.085.548.231l.047.068.22-.624.025-.073c.59-1.659 2.034-5.715 2.1-5.882.08-.207.274-.553.703-.641.273-.058.42-.006.494.036l.439.938c-.647 0-1.178.53-1.178 1.326 0 .333.19.728.447 1.137l-2.479 3.458zm6.303.473c.021.078.021.171.021.203 0 .367-.282.65-.7.65-.416 0-.645-.375-.645-.65 0-.364.282-.684.682-.674h.04l-.383-.582-.11-.174-1.074-1.664-.224-.346-.7-1.084s-.123-.195-.181-.38l-.002-.013a.37.37 0 0 1-.024-.078.225.225 0 0 0-.013-.047.916.916 0 0 1 .908-1.066.91.91 0 0 1 .465.125l-.113-.252-2.668-5.731 1.336-.98 3.385 12.743zm.155-9.462l-.57-2.168c-.22-.837.068-1.654.791-1.721.577-.055 1.042.549 1.042 1.079 0 1.07-.623 1.937-.868 2.288-.06.083-.21.278-.395.522z"/>
    </g>
</svg>
